<?xml version="1.0" standalone="no"?>
<!DOCTYPE svg PUBLIC "-//W3C//DTD SVG 20010904//EN"
 "http://www.w3.org/TR/2001/REC-SVG-20010904/DTD/svg10.dtd">
<svg version="1.0" xmlns="http://www.w3.org/2000/svg"
 width="5000.000000pt" height="5000.000000pt" viewBox="0 0 5000.000000 5000.000000"
 preserveAspectRatio="xMidYMid meet">

<g transform="translate(0.000000,5000.000000) scale(0.100000,-0.100000)"
fill="#000000" stroke="none">
<path d="M24567 39989 c-1630 -74 -3182 -561 -4543 -1427 -2166 -1377 -3666
-3597 -4128 -6110 -105 -567 -150 -1072 -150 -1682 0 -400 9 -587 45 -940 271
-2679 1694 -5091 3923 -6647 685 -478 1514 -895 2316 -1163 1622 -541 3357
-624 5025 -239 1000 231 1979 642 2851 1197 2166 1377 3666 3596 4128 6110
105 567 150 1072 150 1682 0 400 -9 587 -45 940 -84 831 -282 1653 -582 2420
-996 2542 -3068 4516 -5652 5388 -1054 356 -2228 522 -3338 471z m1043 -1239
c357 -28 788 -89 1030 -145 169 -40 406 -98 510 -126 112 -30 484 -150 585
-189 28 -11 115 -45 195 -76 136 -53 179 -71 305 -129 28 -12 86 -39 130 -58
200 -91 602 -306 785 -421 19 -13 53 -34 75 -48 82 -51 332 -219 400 -268 39
-28 81 -58 95 -68 26 -17 108 -80 180 -137 21 -16 52 -41 70 -55 287 -221 727
-639 1000 -950 36 -41 72 -81 80 -90 35 -38 265 -325 340 -426 364 -484 739
-1132 945 -1634 80 -193 139 -342 156 -390 10 -30 32 -93 49 -140 63 -173 163
-512 211 -715 10 -44 23 -96 29 -115 22 -77 82 -70 -604 -70 l-614 0 -16 68
c-9 37 -26 94 -36 127 -63 199 -93 289 -119 360 -15 44 -40 112 -54 150 -49
139 -173 418 -279 630 -33 66 -63 125 -68 130 -4 6 -25 44 -47 85 -116 218
-281 479 -445 705 -345 475 -718 873 -1192 1269 -27 23 -57 48 -66 57 -10 9
-24 21 -33 25 -8 5 -31 23 -52 39 -91 72 -142 111 -170 131 -17 11 -55 38 -85
59 -93 66 -263 180 -300 202 -19 11 -87 52 -150 90 -63 38 -122 73 -130 77 -8
4 -42 22 -75 41 -126 71 -466 235 -615 297 -148 61 -179 74 -330 131 -204 79
-665 210 -880 252 -47 9 -112 23 -145 30 -75 17 -350 61 -470 74 -366 42 -422
45 -825 45 -239 0 -450 -5 -515 -11 -60 -7 -177 -19 -259 -28 -579 -61 -1236
-227 -1771 -448 -267 -110 -414 -177 -585 -268 -349 -185 -623 -356 -895 -556
-199 -147 -436 -342 -585 -483 -149 -140 -331 -325 -460 -465 -102 -112 -363
-434 -438 -542 -18 -27 -66 -94 -105 -150 -113 -160 -172 -255 -298 -473 -97
-170 -216 -400 -278 -540 -14 -30 -33 -73 -44 -95 -56 -118 -199 -497 -257
-680 -157 -496 -264 -1056 -301 -1575 -15 -211 -15 -768 0 -975 11 -145 65
-598 76 -635 3 -8 12 -55 20 -105 55 -320 159 -709 275 -1035 23 -63 45 -126
49 -140 16 -49 120 -297 181 -430 79 -174 212 -428 304 -585 26 -42 46 -78 46
-80 0 -2 22 -36 48 -77 27 -40 51 -77 53 -83 6 -14 108 -166 169 -250 27 -38
58 -81 67 -95 227 -326 673 -815 1003 -1100 35 -30 82 -71 104 -90 217 -189
542 -424 834 -603 135 -83 388 -227 447 -254 17 -7 37 -18 45 -23 21 -14 243
-118 370 -173 615 -268 1311 -450 1990 -521 342 -36 790 -44 1141 -21 272 18
283 19 534 56 463 67 865 164 1305 317 47 16 96 34 110 40 14 6 57 23 95 38
548 209 1174 561 1648 927 282 217 705 605 923 847 291 323 595 735 803 1090
24 41 51 86 59 99 51 83 263 502 325 641 194 437 356 960 451 1461 38 200 86
534 86 602 l0 27 -877 -2 -878 -3 -17 -120 c-42 -288 -155 -721 -252 -969 -14
-36 -37 -94 -50 -129 -85 -216 -253 -553 -361 -727 -67 -108 -240 -364 -282
-417 -26 -34 -72 -93 -101 -130 -55 -72 -62 -79 -205 -241 -153 -172 -450
-448 -627 -583 -14 -11 -40 -31 -59 -47 -30 -23 -114 -83 -226 -162 -281 -195
-755 -439 -1085 -557 -278 -100 -527 -169 -806 -222 -143 -27 -217 -38 -508
-71 -143 -17 -516 -23 -706 -11 -651 39 -1247 183 -1810 438 -97 44 -394 194
-410 207 -8 7 -46 30 -85 51 -197 107 -529 347 -770 558 -295 257 -647 655
-846 957 -189 288 -323 529 -433 780 -21 47 -44 99 -51 115 -32 73 -91 230
-130 350 -109 332 -173 617 -222 985 -26 195 -27 226 -27 610 0 385 1 415 27
610 31 235 66 423 109 595 26 107 43 164 108 380 51 169 175 467 283 683 34
67 68 134 76 150 14 27 139 239 176 298 144 227 359 509 530 693 120 131 331
333 460 443 77 65 147 124 155 131 84 72 437 312 565 384 33 19 76 44 95 55
44 26 407 208 415 208 3 0 30 11 58 24 60 28 135 57 332 127 334 118 649 192
1055 246 195 26 225 27 610 27 384 0 415 -1 610 -27 694 -93 1287 -287 1853
-606 154 -87 145 -81 207 -120 398 -249 745 -538 1074 -896 248 -271 508 -631
674 -935 101 -185 195 -379 260 -535 39 -95 82 -209 82 -217 0 -5 -292 -8
-648 -8 l-648 0 -28 58 c-43 88 -199 346 -270 447 -69 97 -204 268 -276 349
-162 185 -434 431 -619 561 -39 28 -84 59 -99 71 -46 34 -235 150 -319 195
-101 54 -291 149 -298 149 -3 0 -24 9 -48 19 -299 137 -773 256 -1147 290
-147 14 -571 14 -720 1 -791 -71 -1585 -412 -2185 -940 -181 -159 -475 -481
-579 -633 -20 -29 -56 -81 -81 -117 -100 -142 -231 -375 -310 -550 -79 -176
-101 -232 -148 -370 -298 -883 -261 -1899 100 -2735 53 -124 66 -152 103 -225
322 -634 782 -1147 1375 -1532 603 -391 1344 -608 2078 -608 353 0 765 56
1047 141 221 68 371 121 467 165 28 13 55 24 58 24 15 0 315 155 399 206 237
144 297 187 526 375 198 163 461 444 620 663 30 42 66 91 80 110 14 18 36 52
50 75 14 23 41 67 61 99 20 31 53 89 74 127 21 39 50 93 65 120 72 131 196
435 247 605 38 129 100 378 108 438 l7 52 -1368 -2 -1367 -3 -50 -72 c-308
-447 -898 -639 -1420 -461 -287 98 -528 297 -686 566 -159 272 -204 646 -115
956 74 254 206 457 404 620 156 128 302 202 505 257 81 22 110 24 295 24 195
0 210 -2 310 -29 340 -94 601 -295 778 -598 l45 -78 3423 0 3423 0 8 -37 c12
-63 9 -884 -5 -1068 -37 -501 -137 -1092 -262 -1540 -17 -60 -38 -135 -46
-165 -20 -71 -123 -381 -164 -490 -18 -47 -39 -105 -47 -130 -9 -25 -19 -49
-23 -55 -4 -5 -17 -37 -29 -70 -12 -33 -28 -73 -36 -90 -8 -16 -41 -91 -74
-166 -143 -321 -393 -785 -555 -1029 -13 -19 -51 -77 -85 -129 -136 -207 -376
-530 -479 -646 -10 -11 -56 -65 -102 -120 -226 -268 -558 -605 -810 -820 -58
-49 -107 -93 -110 -97 -5 -6 -206 -168 -265 -213 -11 -9 -38 -30 -60 -46 -133
-103 -460 -328 -615 -424 -19 -12 -48 -30 -65 -41 -50 -31 -178 -104 -183
-104 -3 0 -13 -6 -21 -14 -29 -24 -436 -235 -591 -305 -52 -24 -113 -51 -135
-61 -216 -98 -571 -231 -825 -310 -58 -18 -132 -41 -165 -51 -191 -59 -583
-150 -845 -195 -80 -13 -152 -26 -160 -29 -36 -10 -551 -65 -700 -75 -343 -21
-1045 -10 -1315 21 -453 52 -563 69 -870 134 -398 85 -648 155 -1015 285 -91
32 -176 63 -190 69 -14 5 -56 22 -95 37 -78 29 -130 51 -350 149 -748 334
-1494 828 -2120 1405 -182 168 -484 479 -616 635 -19 22 -39 45 -45 50 -16 14
-264 322 -299 371 -17 23 -69 95 -116 160 -183 252 -367 544 -524 830 -72 130
-218 423 -263 524 -11 25 -35 81 -55 125 -106 239 -288 739 -341 940 -14 50
-39 142 -56 205 -55 202 -127 536 -155 720 -9 58 -22 146 -30 195 -8 50 -27
205 -42 345 -26 244 -27 278 -28 780 0 505 1 535 28 790 15 146 32 290 38 320
5 30 18 114 29 187 63 423 214 1004 372 1433 59 160 115 303 133 345 7 17 30
68 50 115 117 273 350 727 469 913 20 31 36 59 36 62 0 3 9 18 19 33 10 15 39
59 63 97 105 165 203 308 311 455 75 102 293 379 311 395 6 6 36 39 66 75 161
191 490 531 671 695 424 381 856 701 1329 981 74 45 142 84 150 88 8 3 38 20
65 35 76 44 498 254 605 302 413 183 884 344 1325 453 240 59 575 125 745 146
47 6 128 17 180 25 97 15 396 40 645 55 214 13 698 3 985 -20z"/>
<path d="M7305 20423 c-327 -18 -711 -99 -1002 -212 -618 -241 -1148 -702
-1462 -1270 -158 -286 -263 -607 -323 -991 -20 -132 -22 -179 -22 -540 0 -326
3 -417 17 -520 58 -403 141 -685 293 -990 334 -670 895 -1135 1629 -1350 573
-167 1333 -192 1956 -65 547 112 987 345 1332 704 312 326 510 701 610 1151
58 259 60 286 64 858 l5 532 -1369 -2 -1368 -3 -3 -582 -2 -583 551 0 550 0
-6 -47 c-31 -223 -106 -383 -249 -532 -204 -211 -476 -302 -901 -302 -267 -1
-439 30 -626 110 -386 167 -629 551 -721 1143 -19 124 -22 183 -22 453 0 246
3 335 17 430 64 435 196 727 436 966 114 114 219 185 350 240 337 140 823 126
1121 -33 229 -122 372 -327 436 -625 l17 -83 824 0 823 0 0 46 c0 127 -54 394
-120 594 -172 525 -507 899 -1050 1174 -496 252 -1113 365 -1785 329z m566
-33 c898 -70 1630 -434 2010 -999 185 -274 296 -590 342 -968 l14 -113 -803 0
-802 0 -7 48 c-10 73 -71 247 -112 320 -174 311 -487 465 -948 465 -394 0
-685 -116 -925 -369 -309 -324 -458 -834 -437 -1484 11 -308 45 -527 117 -744
72 -213 180 -408 298 -538 147 -159 362 -273 620 -329 127 -27 446 -37 600
-19 225 26 429 96 566 194 138 98 266 266 323 424 48 131 69 286 42 303 -8 5
-243 9 -546 9 l-533 0 0 555 0 555 1346 0 1347 0 -6 -472 c-5 -494 -13 -598
-58 -828 -99 -495 -329 -918 -687 -1261 -316 -303 -697 -501 -1182 -613 -489
-113 -1140 -125 -1660 -30 -604 110 -1087 352 -1470 734 -319 320 -535 688
-673 1150 -153 509 -177 1264 -59 1805 145 658 500 1207 1052 1624 454 342
1016 543 1635 584 122 8 473 6 596 -3z"/>
<path d="M18080 20414 c-19 -2 -84 -9 -145 -14 -714 -68 -1367 -371 -1860
-865 -465 -465 -729 -1031 -801 -1715 -21 -206 -15 -733 10 -920 62 -444 192
-827 394 -1154 364 -590 912 -1006 1584 -1201 702 -205 1602 -184 2278 51 424
147 752 354 1070 673 163 164 268 294 375 462 366 576 514 1322 429 2159 -74
725 -387 1341 -909 1790 -468 401 -1016 634 -1685 715 -127 16 -652 29 -740
19z m605 -34 c763 -65 1395 -332 1889 -801 470 -446 728 -978 812 -1679 22
-176 25 -672 6 -850 -43 -401 -133 -728 -287 -1045 -137 -283 -282 -482 -520
-721 -320 -321 -665 -534 -1096 -678 -573 -191 -1335 -227 -1977 -95 -663 137
-1209 466 -1619 977 -329 408 -525 906 -589 1492 -24 216 -24 662 0 860 82
685 334 1219 791 1675 500 499 1119 785 1860 860 159 16 567 18 730 5z"/>
<path d="M18205 19140 c-617 -53 -1044 -464 -1180 -1135 -41 -203 -49 -297
-49 -575 0 -280 9 -386 50 -580 70 -336 197 -584 409 -795 155 -156 279 -234
478 -300 265 -88 624 -86 889 4 410 139 708 489 838 982 58 219 73 362 74 679
1 293 -5 364 -45 570 -78 391 -279 729 -551 923 -243 173 -577 256 -913 227z
m421 -49 c508 -99 861 -466 1003 -1046 46 -187 56 -294 56 -615 0 -321 -9
-418 -57 -625 -126 -546 -459 -924 -924 -1047 -117 -31 -123 -32 -349 -32
-209 -1 -239 1 -325 23 -249 62 -423 162 -598 345 -229 240 -352 527 -414 961
-17 120 -17 629 0 750 21 152 53 295 88 403 171 522 550 844 1061 901 123 14
341 5 459 -18z"/>
<path d="M24690 20414 c-19 -2 -84 -9 -145 -14 -714 -68 -1367 -371 -1860
-865 -465 -465 -729 -1031 -801 -1715 -21 -206 -15 -733 10 -920 62 -444 192
-827 394 -1154 364 -590 912 -1006 1584 -1201 702 -205 1602 -184 2278 51 424
147 752 354 1070 673 163 164 268 294 375 462 366 576 514 1322 429 2159 -74
725 -387 1341 -909 1790 -468 401 -1016 634 -1685 715 -127 16 -652 29 -740
19z m605 -34 c763 -65 1395 -332 1889 -801 470 -446 728 -978 812 -1679 22
-176 25 -672 6 -850 -43 -401 -133 -728 -287 -1045 -137 -283 -282 -482 -520
-721 -320 -321 -665 -534 -1096 -678 -573 -191 -1335 -227 -1977 -95 -663 137
-1209 466 -1619 977 -329 408 -525 906 -589 1492 -24 216 -24 662 0 860 82
685 334 1219 791 1675 500 499 1119 785 1860 860 159 16 567 18 730 5z"/>
<path d="M24815 19140 c-617 -53 -1044 -464 -1180 -1135 -41 -203 -49 -297
-49 -575 0 -280 9 -386 50 -580 70 -336 197 -584 409 -795 155 -156 279 -234
478 -300 265 -88 624 -86 889 4 410 139 708 489 838 982 58 219 73 362 74 679
1 293 -5 364 -45 570 -78 391 -279 729 -551 923 -243 173 -577 256 -913 227z
m421 -49 c508 -99 861 -466 1003 -1046 46 -187 56 -294 56 -615 0 -321 -9
-418 -57 -625 -126 -546 -459 -924 -924 -1047 -117 -31 -123 -32 -349 -32
-209 -1 -239 1 -325 23 -249 62 -423 162 -598 345 -229 240 -352 527 -414 961
-17 120 -17 629 0 750 21 152 53 295 88 403 171 522 550 844 1061 901 123 14
341 5 459 -18z"/>
<path d="M42565 20409 c-536 -49 -973 -211 -1315 -486 -117 -94 -280 -269
-353 -379 -127 -191 -211 -399 -253 -629 -26 -139 -26 -529 -1 -694 94 -601
357 -949 891 -1176 296 -125 692 -224 1146 -285 341 -46 595 -99 759 -159 180
-66 263 -152 297 -309 25 -122 11 -246 -42 -359 -43 -91 -158 -200 -264 -251
-144 -68 -328 -99 -525 -87 -301 18 -469 77 -606 214 -117 117 -188 268 -219
464 l-13 77 -794 0 -795 0 7 -82 c52 -641 292 -1101 740 -1423 106 -76 348
-200 490 -251 516 -185 1294 -242 1899 -139 928 158 1593 784 1712 1611 21
147 20 441 -1 609 -59 459 -242 787 -558 998 -348 233 -850 384 -1587 477
-330 42 -580 100 -720 167 -171 82 -260 225 -260 416 0 130 42 231 134 323
115 115 258 163 506 171 131 4 170 2 255 -16 212 -43 369 -158 453 -331 39
-78 82 -217 82 -262 0 -17 29 -18 775 -18 l775 0 0 23 c0 49 -40 290 -65 393
-91 368 -277 687 -527 901 -307 263 -690 412 -1228 479 -149 19 -648 27 -795
13z m785 -39 c356 -44 607 -114 855 -235 466 -229 761 -611 888 -1150 24 -100
57 -299 57 -339 0 -15 -62 -16 -746 -14 l-746 3 -23 92 c-67 262 -242 441
-496 503 -48 12 -136 24 -204 27 -273 13 -491 -50 -620 -181 -73 -73 -111
-142 -130 -233 -18 -86 -18 -140 -1 -225 29 -135 97 -229 221 -303 111 -66
365 -135 645 -174 543 -77 643 -94 870 -151 532 -134 889 -323 1092 -578 181
-228 271 -500 299 -900 36 -515 -98 -954 -403 -1317 -305 -363 -715 -596
-1233 -700 -225 -45 -387 -59 -695 -59 -632 0 -1097 90 -1495 289 -194 97
-312 182 -460 330 -145 145 -226 258 -310 430 -113 231 -175 464 -201 758 l-6
77 771 0 771 0 0 -29 c0 -46 45 -211 78 -282 139 -309 396 -440 855 -439 305
0 495 66 642 222 103 108 149 230 148 388 0 198 -82 335 -244 413 -154 74
-400 131 -828 192 -1360 193 -1872 546 -2022 1391 -20 112 -23 164 -24 389 0
296 10 378 75 575 75 231 188 415 365 599 361 373 817 576 1441 640 113 12
702 6 814 -9z"/>
<path d="M11150 17420 l0 -2920 1940 0 1940 0 0 650 0 650 -1105 0 -1105 0 0
2270 0 2270 -835 0 -835 0 0 -2920z m1652 623 l3 -2268 1098 -3 1097 -2 0
-620 0 -620 -1915 0 -1915 0 0 2890 0 2890 815 0 815 0 2 -2267z"/>
<path d="M28743 18473 c4 -1990 3 -1938 52 -2225 64 -372 210 -727 408 -988
61 -80 231 -253 317 -323 277 -223 635 -383 1037 -461 477 -93 1059 -95 1523
-5 404 77 743 221 1028 435 410 308 669 756 777 1344 49 269 48 230 52 2223
l4 1867 -846 0 -845 0 0 -1754 c0 -1099 -4 -1801 -10 -1882 -49 -613 -230
-882 -653 -965 -87 -18 -130 -20 -292 -16 -163 4 -204 8 -287 30 -346 91 -515
337 -573 832 -13 111 -15 387 -15 1942 l0 1813 -841 0 -840 0 4 -1867z m1650
-5 c3 -2004 0 -1899 58 -2135 109 -447 376 -642 879 -643 307 0 509 68 665
225 119 118 187 264 234 498 45 223 44 194 48 2085 l4 1812 814 0 815 0 0
-1772 c0 -1105 -4 -1828 -10 -1918 -27 -377 -105 -705 -233 -980 -271 -584
-819 -985 -1547 -1134 -488 -99 -1120 -98 -1595 4 -951 204 -1540 803 -1700
1730 -50 286 -48 211 -52 2203 l-4 1867 810 0 810 0 4 -1842z"/>
<path d="M34950 17419 l0 -2920 1228 4 c1313 4 1335 5 1662 57 688 111 1202
359 1606 772 187 191 306 357 425 591 201 396 297 797 318 1328 27 680 -66
1219 -288 1674 -387 791 -1120 1250 -2201 1379 -258 31 -479 36 -1610 36
l-1140 0 0 -2921z m2635 2872 c630 -71 1064 -204 1455 -447 496 -307 856 -808
1015 -1416 93 -356 131 -801 106 -1228 -31 -516 -125 -894 -316 -1270 -122
-238 -263 -427 -467 -625 -200 -195 -374 -316 -633 -441 -349 -168 -684 -257
-1200 -315 -67 -8 -504 -13 -1337 -16 l-1238 -4 0 2891 0 2891 1258 -4 c848
-3 1290 -8 1357 -16z"/>
<path d="M36613 19074 c-18 -8 -19 -3284 -1 -3302 15 -15 443 -17 603 -2 756
70 1136 454 1242 1255 21 153 23 630 5 790 -49 418 -161 694 -367 901 -148
148 -312 240 -537 298 -187 49 -282 58 -618 62 -173 2 -321 1 -327 -2z m787
-53 c151 -28 283 -70 400 -126 126 -62 200 -116 296 -217 200 -213 307 -509
345 -956 13 -159 7 -563 -11 -697 -53 -397 -164 -665 -362 -871 -176 -183
-395 -287 -716 -341 -86 -14 -168 -18 -417 -18 l-310 0 -3 1629 -2 1628 332
-5 c280 -4 351 -8 448 -26z"/>
<path d="M8460 11515 l0 -1465 345 0 345 0 0 158 0 157 21 -35 c94 -156 233
-257 412 -300 100 -24 289 -27 389 -5 243 51 455 224 563 459 82 176 110 355
102 649 -4 168 -9 219 -30 307 -84 351 -300 590 -609 672 -106 28 -297 30
-403 4 -153 -37 -287 -126 -384 -255 l-56 -73 -3 596 -2 596 -345 0 -345 0 0
-1465z m660 859 c0 -377 4 -582 10 -595 18 -33 37 -22 97 58 96 128 215 210
364 250 98 27 309 24 413 -6 315 -89 534 -357 591 -726 43 -283 21 -582 -59
-797 -48 -126 -90 -191 -191 -293 -101 -102 -182 -154 -297 -190 -340 -108
-686 -4 -842 253 -65 107 -86 78 -86 -119 l0 -129 -315 0 -315 0 0 1435 0
1435 315 0 315 0 0 -576z"/>
<path d="M9395 11620 c-163 -55 -257 -196 -286 -433 -21 -171 9 -374 71 -482
39 -68 107 -130 178 -163 75 -34 219 -43 308 -18 68 20 152 73 187 119 39 51
76 132 94 204 26 104 23 362 -5 467 -40 144 -116 241 -230 294 -78 36 -228 42
-317 12z m292 -32 c30 -11 76 -40 106 -68 95 -87 135 -200 144 -405 9 -210
-27 -357 -111 -460 -72 -88 -221 -136 -357 -114 -170 26 -276 136 -322 333
-16 71 -15 337 2 406 34 138 116 252 214 298 94 44 221 48 324 10z"/>
<path d="M13150 11515 l0 -1465 345 0 345 0 0 1465 0 1465 -345 0 -345 0 0
-1465z m660 0 l0 -1435 -315 0 -315 0 0 1435 0 1435 315 0 315 0 0 -1435z"/>
<path d="M14250 11515 l0 -1465 345 0 345 0 0 1465 0 1465 -345 0 -345 0 0
-1465z m660 0 l0 -1435 -315 0 -315 0 0 1435 0 1435 315 0 315 0 0 -1435z"/>
<path d="M32088 12855 c-329 -47 -598 -181 -823 -409 -195 -198 -314 -438
-360 -720 -44 -273 -21 -601 60 -841 106 -316 332 -579 624 -725 89 -44 279
-105 391 -125 127 -23 469 -31 610 -15 319 37 562 145 756 335 160 157 254
319 309 532 33 126 45 259 45 494 l0 199 -650 0 -650 0 0 -275 0 -275 260 0
260 0 -6 -32 c-25 -147 -108 -265 -229 -326 -76 -38 -148 -53 -275 -59 -225
-10 -371 36 -491 156 -147 147 -221 407 -206 726 4 72 15 171 26 220 74 354
312 550 646 532 250 -14 401 -126 449 -335 l13 -57 391 -3 392 -2 0 29 c0 16
-7 66 -15 110 -66 346 -238 573 -554 731 -90 45 -279 105 -391 125 -129 23
-453 29 -582 10z m527 -30 c411 -62 731 -260 872 -539 57 -114 113 -304 113
-387 0 -18 -14 -19 -364 -19 l-365 0 -16 57 c-62 213 -209 321 -464 338 -240
17 -458 -91 -576 -285 -103 -169 -151 -437 -126 -700 15 -160 44 -269 98 -380
81 -164 198 -260 373 -307 91 -24 329 -24 419 1 131 36 224 98 286 192 64 96
97 243 59 258 -9 3 -126 6 -260 6 l-244 0 0 250 0 250 626 0 626 0 -5 -262
c-7 -329 -28 -442 -120 -623 -134 -267 -347 -454 -630 -554 -324 -114 -815
-116 -1146 -5 -451 151 -746 506 -838 1009 -24 130 -24 485 0 615 63 340 235
619 507 824 193 145 421 235 685 269 84 11 398 6 490 -8z"/>
<path d="M170 11440 l0 -1390 400 0 400 0 0 495 0 495 430 0 430 0 0 290 0
290 -430 0 -430 0 0 295 0 295 538 2 537 3 3 308 2 307 -940 0 -940 0 0 -1390z
m1850 1080 l0 -280 -528 0 c-397 0 -531 -3 -540 -12 -17 -17 -17 -609 0 -626
9 -9 118 -12 430 -12 l418 0 0 -265 0 -265 -424 0 c-377 0 -425 -2 -430 -16
-3 -9 -6 -229 -6 -490 l0 -474 -370 0 -370 0 0 1360 0 1360 910 0 910 0 0
-280z"/>
<path d="M16140 11440 l0 -1390 400 0 400 0 0 1390 0 1390 -400 0 -400 0 0
-1390z m770 0 l0 -1360 -375 0 -375 0 0 1360 0 1360 375 0 375 0 0 -1360z"/>
<path d="M7070 12295 l0 -215 -120 0 -120 0 0 -235 0 -235 119 0 120 0 4 -532
c4 -598 5 -609 76 -753 106 -216 305 -315 630 -315 126 0 176 6 319 36 l72 16
0 264 0 264 -26 -11 c-15 -5 -60 -14 -101 -20 -130 -18 -212 12 -256 94 -22
41 -22 48 -25 500 l-3 457 200 0 201 0 0 235 0 235 -197 2 -198 3 -3 213 -2
212 -345 0 -345 0 0 -215z m670 -20 c0 -192 1 -205 19 -215 12 -6 95 -10 200
-10 l181 0 0 -205 0 -205 -187 0 c-104 0 -194 -4 -201 -8 -10 -7 -12 -106 -10
-483 3 -458 4 -475 24 -514 11 -22 40 -53 63 -70 41 -29 47 -30 149 -30 59 0
119 3 135 8 l27 7 0 -233 0 -234 -52 -11 c-138 -29 -193 -35 -318 -35 -205 1
-323 33 -446 119 -95 66 -159 166 -200 309 -16 53 -18 124 -22 605 -2 363 -7
549 -14 557 -7 9 -44 13 -124 13 l-114 0 0 204 0 204 115 4 c89 2 118 6 125
18 5 8 10 104 10 213 l0 197 320 0 320 0 0 -205z"/>
<path d="M44820 12295 l0 -215 -120 0 -120 0 0 -235 0 -235 119 0 120 0 4
-532 c4 -598 5 -609 76 -753 106 -216 305 -315 630 -315 126 0 176 6 319 36
l72 16 0 264 0 264 -26 -11 c-15 -5 -60 -14 -101 -20 -130 -18 -212 12 -256
94 -22 41 -22 48 -25 500 l-3 457 200 0 201 0 0 235 0 235 -197 2 -198 3 -3
213 -2 212 -345 0 -345 0 0 -215z m670 -20 c0 -192 1 -205 19 -215 12 -6 95
-10 200 -10 l181 0 0 -205 0 -205 -187 0 c-104 0 -194 -4 -201 -8 -10 -7 -12
-106 -10 -483 3 -458 4 -475 24 -514 11 -22 40 -53 63 -70 41 -29 47 -30 149
-30 59 0 119 3 135 8 l27 7 0 -233 0 -234 -52 -11 c-138 -29 -193 -35 -318
-35 -205 1 -323 33 -446 119 -95 66 -159 166 -200 309 -16 53 -18 124 -22 605
-2 363 -7 549 -14 557 -7 9 -44 13 -124 13 l-114 0 0 204 0 204 115 4 c89 2
118 6 125 18 5 8 10 104 10 213 l0 197 320 0 320 0 0 -205z"/>
<path d="M3086 12129 c-276 -29 -506 -136 -688 -321 -187 -190 -278 -433 -278
-748 0 -366 120 -631 373 -823 205 -157 433 -227 738 -227 341 0 599 95 813
299 199 191 296 442 296 766 0 214 -44 397 -131 552 -60 107 -223 271 -339
342 -221 134 -496 190 -784 160z m309 -29 c389 -45 710 -272 842 -595 49 -122
64 -200 70 -375 10 -291 -40 -489 -172 -675 -52 -73 -170 -187 -248 -238 -352
-233 -912 -246 -1275 -29 -217 130 -368 327 -429 560 -21 79 -26 128 -30 267
-7 241 19 382 103 550 135 269 431 478 744 524 41 6 86 13 100 15 54 7 209 5
295 -4z"/>
<path d="M3140 11639 c-73 -14 -165 -65 -209 -116 -84 -95 -120 -207 -128
-399 -14 -330 74 -529 269 -607 78 -31 241 -30 320 2 123 48 220 177 253 336
20 95 20 333 -1 433 -31 156 -100 259 -208 312 -95 47 -192 59 -296 39z m201
-33 c143 -33 225 -122 271 -294 16 -62 20 -108 20 -237 1 -230 -32 -342 -129
-446 -65 -70 -133 -100 -238 -107 -291 -18 -435 164 -435 548 0 206 34 333
116 428 87 102 242 144 395 108z"/>
<path d="M5466 12129 c-276 -29 -506 -136 -688 -321 -187 -190 -278 -433 -278
-748 0 -366 120 -631 373 -823 205 -157 433 -227 738 -227 341 0 599 95 813
299 199 191 296 442 296 766 0 214 -44 397 -131 552 -60 107 -223 271 -339
342 -221 134 -496 190 -784 160z m309 -29 c389 -45 710 -272 842 -595 49 -122
64 -200 70 -375 10 -291 -40 -489 -172 -675 -52 -73 -170 -187 -248 -238 -352
-233 -912 -246 -1275 -29 -217 130 -368 327 -429 560 -21 79 -26 128 -30 267
-7 241 19 382 103 550 135 269 431 478 744 524 41 6 86 13 100 15 54 7 209 5
295 -4z"/>
<path d="M5520 11639 c-73 -14 -165 -65 -209 -116 -84 -95 -120 -207 -128
-399 -14 -330 74 -529 269 -607 78 -31 241 -30 320 2 123 48 220 177 253 336
20 95 20 333 -1 433 -31 156 -100 259 -208 312 -95 47 -192 59 -296 39z m201
-33 c143 -33 225 -122 271 -294 16 -62 20 -108 20 -237 1 -230 -32 -342 -129
-446 -65 -70 -133 -100 -238 -107 -291 -18 -435 164 -435 548 0 206 34 333
116 428 87 102 242 144 395 108z"/>
<path d="M11690 12130 c-446 -45 -723 -255 -794 -602 -27 -133 -65 -118 307
-118 l324 0 16 60 c35 124 139 188 292 178 97 -6 157 -36 191 -93 33 -57 42
-90 50 -191 l7 -84 -134 0 c-163 0 -374 -15 -490 -35 -455 -79 -677 -308 -655
-677 17 -280 163 -456 441 -534 90 -25 331 -31 437 -10 154 30 305 123 393
241 13 18 14 9 15 -97 l0 -118 341 0 340 0 -4 733 c-3 713 -4 734 -25 815 -76
288 -272 452 -617 516 -102 19 -325 27 -435 16z m338 -30 c196 -22 363 -83
482 -176 97 -76 163 -182 203 -322 21 -75 21 -97 25 -799 l3 -723 -310 0 -310
0 -3 113 c-3 104 -4 112 -23 115 -15 2 -33 -12 -61 -47 -84 -103 -184 -166
-323 -203 -110 -29 -333 -29 -446 1 -291 77 -435 261 -435 556 1 287 165 479
486 569 143 40 281 57 537 63 218 5 239 8 248 24 6 13 6 52 0 117 -8 78 -17
110 -43 162 -29 58 -39 68 -92 95 -54 27 -68 30 -156 30 -87 0 -102 -3 -155
-30 -68 -35 -120 -95 -137 -161 l-12 -44 -299 0 -298 0 7 48 c12 87 57 205
107 279 169 254 555 381 1005 333z"/>
<path d="M11755 10909 c-216 -23 -307 -108 -292 -271 10 -108 73 -168 200
-188 175 -28 359 57 417 192 18 41 23 73 24 154 0 56 -3 106 -7 111 -12 11
-244 13 -342 2z m323 -116 c-6 -119 -26 -171 -90 -229 -66 -61 -142 -87 -258
-88 -81 -1 -102 3 -142 22 -62 31 -90 71 -96 138 -6 75 5 119 38 158 61 69
162 93 409 95 l144 1 -5 -97z"/>
<path d="M18630 12130 c-215 -30 -400 -145 -514 -320 l-36 -55 0 163 0 162
-345 0 -345 0 0 -1015 0 -1015 345 0 345 0 0 601 c0 667 2 695 63 787 36 53
109 106 170 124 56 16 183 15 231 -1 55 -19 119 -82 147 -144 l24 -52 3 -657
3 -658 345 0 345 0 -3 768 c-3 753 -4 768 -25 844 -69 243 -216 394 -440 452
-75 20 -230 27 -313 16z m345 -54 c150 -50 259 -144 326 -281 83 -170 89 -236
89 -1052 l0 -663 -320 0 -320 0 0 610 c0 412 -4 626 -11 662 -35 165 -139 248
-308 248 -179 0 -304 -85 -357 -243 -16 -47 -18 -113 -21 -664 l-4 -613 -315
0 -314 0 0 985 0 985 315 0 315 0 0 -138 c0 -192 22 -218 94 -109 42 63 143
162 206 202 118 74 256 107 430 101 91 -3 132 -9 195 -30z"/>
<path d="M20605 12130 c-416 -48 -751 -299 -873 -655 -73 -216 -82 -539 -20
-774 85 -326 336 -563 697 -658 129 -34 423 -44 578 -19 323 51 549 197 672
436 55 106 78 187 96 338 l7 52 -315 0 -314 0 -6 -45 c-7 -62 -60 -166 -104
-206 -154 -135 -429 -110 -544 48 -71 100 -99 217 -99 416 1 273 73 433 229
505 49 23 69 27 156 27 83 0 108 -4 150 -23 87 -40 142 -109 168 -212 l14 -55
324 0 324 0 -4 45 c-23 338 -246 626 -559 724 -165 52 -407 75 -577 56z m322
-31 c208 -23 371 -83 491 -180 162 -131 261 -310 290 -528 l9 -61 -298 0 -298
0 -12 42 c-39 146 -146 237 -296 254 -170 18 -324 -63 -396 -209 -43 -89 -58
-161 -64 -312 -14 -370 102 -574 351 -616 129 -22 284 25 356 108 38 42 76
117 91 177 l11 46 285 0 284 0 -7 -52 c-28 -222 -126 -406 -282 -530 -176
-140 -384 -200 -692 -201 -230 -1 -386 31 -545 111 -251 126 -399 308 -473
582 -24 89 -26 109 -26 325 0 218 2 235 27 329 135 501 603 781 1194 715z"/>
<path d="M22856 12129 c-276 -29 -506 -136 -688 -321 -187 -190 -278 -433
-278 -748 0 -366 120 -631 373 -823 205 -157 433 -227 738 -227 341 0 599 95
813 299 199 191 296 442 296 766 0 214 -44 397 -131 552 -60 107 -223 271
-339 342 -221 134 -496 190 -784 160z m309 -29 c389 -45 710 -272 842 -595 49
-122 64 -200 70 -375 10 -291 -40 -489 -172 -675 -52 -73 -170 -187 -248 -238
-352 -233 -912 -246 -1275 -29 -217 130 -368 327 -429 560 -21 79 -26 128 -30
267 -7 241 19 382 103 550 135 269 431 478 744 524 41 6 86 13 100 15 54 7
209 5 295 -4z"/>
<path d="M22910 11639 c-73 -14 -165 -65 -209 -116 -84 -95 -120 -207 -128
-399 -14 -330 74 -529 269 -607 78 -31 241 -30 320 2 123 48 220 177 253 336
20 95 20 333 -1 433 -31 156 -100 259 -208 312 -95 47 -192 59 -296 39z m201
-33 c143 -33 225 -122 271 -294 16 -62 20 -108 20 -237 1 -230 -32 -342 -129
-446 -65 -70 -133 -100 -238 -107 -291 -18 -435 164 -435 548 0 206 34 333
116 428 87 102 242 144 395 108z"/>
<path d="M25595 12130 c-197 -31 -373 -139 -481 -296 l-39 -56 -3 151 -3 151
-344 0 -345 0 0 -1015 0 -1015 345 0 344 0 3 643 c4 736 -1 700 93 794 39 38
66 55 105 67 62 18 148 21 203 5 47 -13 112 -70 137 -120 36 -69 40 -149 40
-776 l0 -613 340 0 339 0 3 643 c4 736 -1 700 93 794 66 65 133 88 239 81 102
-7 164 -46 206 -128 37 -72 40 -138 40 -772 l0 -618 345 0 345 0 0 698 c0 692
-4 796 -35 918 -48 182 -175 339 -332 410 -99 44 -169 57 -308 57 -150 -1
-241 -21 -361 -78 -74 -36 -208 -136 -237 -177 -9 -13 -27 -36 -40 -52 l-25
-28 -33 63 c-66 125 -187 216 -333 254 -77 19 -224 26 -301 15z m256 -34 c157
-28 286 -120 357 -254 43 -81 61 -82 122 -6 48 60 136 134 211 178 166 95 433
122 617 61 195 -65 323 -208 384 -430 22 -79 23 -91 26 -822 l3 -743 -320 0
-320 0 -3 658 -3 657 -27 51 c-58 109 -154 161 -284 151 -162 -12 -265 -103
-299 -263 -12 -56 -15 -182 -15 -661 l0 -593 -315 0 -314 0 -3 653 -3 652 -24
52 c-51 113 -158 171 -293 160 -113 -10 -201 -62 -254 -152 -51 -87 -54 -131
-54 -772 l0 -593 -315 0 -315 0 0 985 0 985 315 0 315 0 0 -131 c0 -189 19
-210 93 -106 54 75 112 131 191 186 137 95 335 131 527 97z"/>
<path d="M28805 12130 c-447 -51 -794 -327 -909 -723 -38 -130 -49 -242 -43
-412 8 -229 56 -391 161 -549 145 -218 394 -369 693 -421 112 -20 387 -20 513
0 343 52 586 213 695 458 22 51 65 199 65 226 0 8 -98 11 -324 11 l-324 0 -16
-46 c-9 -26 -27 -62 -41 -81 -101 -131 -392 -151 -557 -37 -79 55 -146 180
-163 302 l-7 52 717 0 718 0 -6 198 c-8 249 -34 376 -112 532 -120 239 -372
417 -675 474 -101 20 -285 27 -385 16z m334 -36 c244 -36 462 -151 602 -317
143 -170 209 -388 209 -694 l0 -143 -687 0 c-379 0 -698 -3 -710 -6 -30 -8
-35 -38 -18 -119 20 -94 66 -184 123 -241 126 -127 364 -159 539 -73 69 33
115 81 139 146 l17 43 299 0 c280 0 299 -1 294 -17 -3 -10 -10 -38 -16 -63
-44 -171 -170 -338 -324 -429 -299 -178 -849 -198 -1180 -43 -272 128 -447
336 -518 618 -20 78 -23 115 -23 299 0 187 3 220 23 300 32 122 117 292 193
382 238 284 627 418 1038 357z"/>
<path d="M28846 11700 c-63 -16 -155 -71 -195 -116 -20 -23 -49 -67 -64 -98
-32 -66 -62 -178 -54 -200 6 -14 52 -16 396 -16 343 0 391 2 399 16 5 8 5 42
0 77 -23 168 -94 270 -222 320 -59 22 -200 32 -260 17z m264 -47 c112 -49 171
-144 194 -310 l6 -43 -375 0 c-304 0 -375 3 -375 13 0 25 32 122 56 169 46 91
118 152 217 184 61 20 218 12 277 -13z"/>
<path d="M34835 12130 c-447 -51 -794 -327 -909 -723 -38 -130 -49 -242 -43
-412 8 -229 56 -391 161 -549 145 -218 394 -369 693 -421 112 -20 387 -20 513
0 343 52 586 213 695 458 22 51 65 199 65 226 0 8 -98 11 -324 11 l-324 0 -16
-46 c-9 -26 -27 -62 -41 -81 -101 -131 -392 -151 -557 -37 -79 55 -146 180
-163 302 l-7 52 717 0 718 0 -6 198 c-8 249 -34 376 -112 532 -120 239 -372
417 -675 474 -101 20 -285 27 -385 16z m334 -36 c244 -36 462 -151 602 -317
143 -170 209 -388 209 -694 l0 -143 -687 0 c-379 0 -698 -3 -710 -6 -30 -8
-35 -38 -18 -119 20 -94 66 -184 123 -241 126 -127 364 -159 539 -73 69 33
115 81 139 146 l17 43 299 0 c280 0 299 -1 294 -17 -3 -10 -10 -38 -16 -63
-44 -171 -170 -338 -324 -429 -299 -178 -849 -198 -1180 -43 -272 128 -447
336 -518 618 -20 78 -23 115 -23 299 0 187 3 220 23 300 32 122 117 292 193
382 238 284 627 418 1038 357z"/>
<path d="M34876 11700 c-63 -16 -155 -71 -195 -116 -20 -23 -49 -67 -64 -98
-32 -66 -62 -178 -54 -200 6 -14 52 -16 396 -16 343 0 391 2 399 16 5 8 5 42
0 77 -23 168 -94 270 -222 320 -59 22 -200 32 -260 17z m264 -47 c112 -49 171
-144 194 -310 l6 -43 -375 0 c-304 0 -375 3 -375 13 0 25 32 122 56 169 46 91
118 152 217 184 61 20 218 12 277 -13z"/>
<path d="M37520 12130 c-215 -30 -400 -145 -514 -320 l-36 -55 0 163 0 162
-345 0 -345 0 0 -1015 0 -1015 345 0 345 0 0 601 c0 667 2 695 63 787 36 53
109 106 170 124 56 16 183 15 231 -1 55 -19 119 -82 147 -144 l24 -52 3 -657
3 -658 345 0 345 0 -3 768 c-3 753 -4 768 -25 844 -69 243 -216 394 -440 452
-75 20 -230 27 -313 16z m345 -54 c150 -50 259 -144 326 -281 83 -170 89 -236
89 -1052 l0 -663 -320 0 -320 0 0 610 c0 412 -4 626 -11 662 -35 165 -139 248
-308 248 -179 0 -304 -85 -357 -243 -16 -47 -18 -113 -21 -664 l-4 -613 -315
0 -314 0 0 985 0 985 315 0 315 0 0 -138 c0 -192 22 -218 94 -109 42 63 143
162 206 202 118 74 256 107 430 101 91 -3 132 -9 195 -30z"/>
<path d="M39515 12130 c-447 -51 -794 -327 -909 -723 -38 -130 -49 -242 -43
-412 8 -229 56 -391 161 -549 145 -218 394 -369 693 -421 112 -20 387 -20 513
0 343 52 586 213 695 458 22 51 65 199 65 226 0 8 -98 11 -324 11 l-324 0 -16
-46 c-9 -26 -27 -62 -41 -81 -101 -131 -392 -151 -557 -37 -79 55 -146 180
-163 302 l-7 52 717 0 718 0 -6 198 c-8 249 -34 376 -112 532 -120 239 -372
417 -675 474 -101 20 -285 27 -385 16z m334 -36 c244 -36 462 -151 602 -317
143 -170 209 -388 209 -694 l0 -143 -687 0 c-379 0 -698 -3 -710 -6 -30 -8
-35 -38 -18 -119 20 -94 66 -184 123 -241 126 -127 364 -159 539 -73 69 33
115 81 139 146 l17 43 299 0 c280 0 299 -1 294 -17 -3 -10 -10 -38 -16 -63
-44 -171 -170 -338 -324 -429 -299 -178 -849 -198 -1180 -43 -272 128 -447
336 -518 618 -20 78 -23 115 -23 299 0 187 3 220 23 300 32 122 117 292 193
382 238 284 627 418 1038 357z"/>
<path d="M39556 11700 c-63 -16 -155 -71 -195 -116 -20 -23 -49 -67 -64 -98
-32 -66 -62 -178 -54 -200 6 -14 52 -16 396 -16 343 0 391 2 399 16 5 8 5 42
0 77 -23 168 -94 270 -222 320 -59 22 -200 32 -260 17z m264 -47 c112 -49 171
-144 194 -310 l6 -43 -375 0 c-304 0 -375 3 -375 13 0 25 32 122 56 169 46 91
118 152 217 184 61 20 218 12 277 -13z"/>
<path d="M43310 12130 c-446 -45 -723 -255 -794 -602 -27 -133 -65 -118 307
-118 l324 0 16 60 c35 124 139 188 292 178 97 -6 157 -36 191 -93 33 -57 42
-90 50 -191 l7 -84 -134 0 c-163 0 -374 -15 -490 -35 -455 -79 -677 -308 -655
-677 15 -238 116 -394 316 -487 107 -50 172 -63 332 -68 186 -6 277 10 404 72
74 36 104 58 162 120 l72 75 0 -115 0 -115 341 0 340 0 -4 733 c-3 713 -4 734
-25 815 -76 288 -272 452 -617 516 -102 19 -325 27 -435 16z m338 -30 c196
-22 363 -83 482 -176 97 -76 163 -182 203 -322 21 -75 21 -97 25 -799 l3 -723
-310 0 -310 0 -3 113 c-3 104 -4 112 -23 115 -15 2 -33 -12 -61 -47 -84 -103
-184 -166 -323 -203 -110 -29 -333 -29 -446 1 -291 77 -435 261 -435 556 1
287 165 479 486 569 143 40 281 57 537 63 218 5 239 8 248 24 6 13 6 52 0 117
-8 78 -17 110 -43 162 -29 58 -39 68 -92 95 -54 27 -68 30 -156 30 -87 0 -102
-3 -155 -30 -68 -35 -120 -95 -137 -161 l-12 -44 -299 0 -298 0 7 48 c12 87
57 205 107 279 169 254 555 381 1005 333z"/>
<path d="M43375 10909 c-216 -23 -307 -108 -292 -271 10 -108 73 -168 200
-188 175 -28 359 57 417 192 18 41 23 73 24 154 0 56 -3 106 -7 111 -12 11
-244 13 -342 2z m323 -116 c-6 -119 -26 -171 -90 -229 -66 -61 -142 -87 -258
-88 -81 -1 -102 3 -142 22 -62 31 -90 71 -96 138 -6 75 5 119 38 158 61 69
162 93 409 95 l144 1 -5 -97z"/>
<path d="M47056 12129 c-276 -29 -506 -136 -688 -321 -187 -190 -278 -433
-278 -748 0 -366 120 -631 373 -823 205 -157 433 -227 738 -227 341 0 599 95
813 299 199 191 296 442 296 766 0 214 -44 397 -131 552 -60 107 -223 271
-339 342 -221 134 -496 190 -784 160z m309 -29 c389 -45 710 -272 842 -595 49
-122 64 -200 70 -375 10 -291 -40 -489 -172 -675 -52 -73 -170 -187 -248 -238
-352 -233 -912 -246 -1275 -29 -217 130 -368 327 -429 560 -21 79 -26 128 -30
267 -7 241 19 382 103 550 135 269 431 478 744 524 41 6 86 13 100 15 54 7
209 5 295 -4z"/>
<path d="M47110 11639 c-73 -14 -165 -65 -209 -116 -84 -95 -120 -207 -128
-399 -14 -330 74 -529 269 -607 78 -31 241 -30 320 2 123 48 220 177 253 336
20 95 20 333 -1 433 -31 156 -100 259 -208 312 -95 47 -192 59 -296 39z m201
-33 c143 -33 225 -122 271 -294 16 -62 20 -108 20 -237 1 -230 -32 -342 -129
-446 -65 -70 -133 -100 -238 -107 -291 -18 -435 164 -435 548 0 206 34 333
116 428 87 102 242 144 395 108z"/>
<path d="M42152 12099 c-213 -36 -371 -154 -478 -359 l-29 -55 -3 198 -2 197
-345 0 -345 0 0 -1015 0 -1015 345 0 345 0 0 510 c0 334 4 527 11 562 15 72
64 161 112 204 91 83 258 134 437 134 l100 0 0 325 0 325 -47 -1 c-27 -1 -72
-5 -101 -10z m118 -313 l0 -293 -112 -6 c-247 -14 -411 -93 -487 -236 -57
-108 -61 -144 -61 -683 l0 -488 -315 0 -315 0 0 985 0 985 315 0 315 0 0 -178
c0 -134 3 -183 14 -197 20 -28 42 -13 75 52 107 214 304 344 529 352 l42 1 0
-294z"/>
<path d="M49782 12099 c-213 -36 -371 -154 -478 -359 l-29 -55 -3 198 -2 197
-345 0 -345 0 0 -1015 0 -1015 345 0 345 0 0 510 c0 334 4 527 11 562 15 72
64 161 112 204 91 83 258 134 437 134 l100 0 0 325 0 325 -47 -1 c-27 -1 -72
-5 -101 -10z m118 -313 l0 -293 -112 -6 c-247 -14 -411 -93 -487 -236 -57
-108 -61 -144 -61 -683 l0 -488 -315 0 -315 0 0 985 0 985 315 0 315 0 0 -178
c0 -134 3 -183 14 -197 20 -28 42 -13 75 52 107 214 304 344 529 352 l42 1 0
-294z"/>
</g>
</svg>
