<?xml version="1.0" encoding="UTF-8"?>
<svg id="Layer_1" data-name="Layer 1" xmlns="http://www.w3.org/2000/svg" viewBox="0 0 500 301.33">
  <defs>
    <style>
      .cls-1 {
        fill: #010101;
      }

      .cls-2 {
        fill: #fff;
      }
    </style>
  </defs>
  <path class="cls-1" d="m245.15.09c-16.38.74-31.97,5.64-45.65,14.34-21.76,13.84-36.84,36.14-41.48,61.39-1.06,5.7-1.51,10.77-1.51,16.9,0,4.02.09,5.9.45,9.45,2.72,26.92,17.02,51.16,39.42,66.79,6.88,4.8,15.21,8.99,23.27,11.69,16.3,5.44,33.73,6.27,50.49,2.4,10.05-2.32,19.89-6.45,28.65-12.03,21.76-13.84,36.84-36.13,41.48-61.39,1.06-5.7,1.51-10.77,1.51-16.9,0-4.02-.09-5.9-.45-9.45-.84-8.35-2.83-16.61-5.85-24.32-10.01-25.54-30.83-45.38-56.79-54.14-10.59-3.58-22.39-5.25-33.54-4.73Zm10.48,12.45c3.59.28,7.92.89,10.35,1.46,1.7.4,4.08.98,5.12,1.27,1.13.3,4.86,1.51,5.88,1.9.28.11,1.16.45,1.96.76,1.37.53,1.8.71,3.06,1.3.28.12.86.39,1.31.58,2.01.91,6.05,3.07,7.89,4.23.19.13.53.34.75.48.82.51,3.34,2.2,4.02,2.69.39.28.81.58.95.68.26.17,1.09.8,1.81,1.38.21.16.52.41.7.55,2.88,2.22,7.31,6.42,10.05,9.55.36.41.72.81.8.9.35.38,2.66,3.27,3.42,4.28,3.66,4.86,7.43,11.37,9.5,16.42.8,1.94,1.4,3.44,1.57,3.92.1.3.32.93.49,1.41.63,1.74,1.64,5.14,2.12,7.18.1.44.23.96.29,1.16.22.77.82.7-6.07.7h-6.17l-.16-.68c-.09-.37-.26-.94-.36-1.28-.63-2-.93-2.9-1.2-3.62-.15-.44-.4-1.13-.54-1.51-.49-1.4-1.74-4.2-2.8-6.33-.33-.66-.63-1.26-.68-1.31-.04-.06-.25-.44-.47-.85-1.17-2.19-2.82-4.81-4.47-7.08-3.47-4.77-7.21-8.77-11.98-12.75-.27-.23-.57-.48-.66-.57-.1-.09-.24-.21-.33-.25-.08-.05-.31-.23-.52-.39-.91-.72-1.43-1.12-1.71-1.32-.17-.11-.55-.38-.85-.59-.93-.66-2.64-1.81-3.01-2.03-.19-.11-.87-.52-1.51-.9s-1.23-.73-1.31-.77-.42-.22-.75-.41c-1.27-.71-4.68-2.36-6.18-2.98-1.49-.61-1.8-.74-3.32-1.32-2.05-.79-6.68-2.11-8.84-2.53-.47-.09-1.13-.23-1.46-.3-.75-.17-3.52-.61-4.72-.74-3.68-.42-4.24-.45-8.29-.45-2.4,0-4.52.05-5.17.11-.6.07-1.78.19-2.6.28-5.82.61-12.42,2.28-17.8,4.5-2.68,1.11-4.16,1.78-5.88,2.69-3.51,1.86-6.26,3.58-8.99,5.59-2,1.48-4.38,3.44-5.88,4.85-1.5,1.41-3.33,3.27-4.62,4.67-1.02,1.13-3.65,4.36-4.4,5.45-.18.27-.66.94-1.06,1.51-1.14,1.61-1.73,2.56-2.99,4.75-.97,1.71-2.17,4.02-2.79,5.43-.14.3-.33.73-.44.95-.56,1.19-2,4.99-2.58,6.83-1.58,4.98-2.65,10.61-3.02,15.83-.15,2.12-.15,7.72,0,9.8.11,1.46.65,6.01.76,6.38.03.08.12.55.2,1.06.55,3.22,1.6,7.12,2.76,10.4.23.63.45,1.27.49,1.41.16.49,1.21,2.98,1.82,4.32.79,1.75,2.13,4.3,3.05,5.88.26.42.46.78.46.8s.22.36.48.77c.27.4.51.77.53.83.06.14,1.09,1.67,1.7,2.51.27.38.58.81.67.95,2.28,3.28,6.76,8.19,10.08,11.05.35.3.82.71,1.05.9,2.18,1.9,5.45,4.26,8.38,6.06,1.36.83,3.9,2.28,4.49,2.55.17.07.37.18.45.23.21.14,2.44,1.19,3.72,1.74,6.18,2.69,13.17,4.52,20,5.24,3.44.36,7.94.44,11.47.21,2.73-.18,2.84-.19,5.37-.56,4.65-.67,8.69-1.65,13.11-3.19.47-.16.96-.34,1.11-.4s.57-.23.95-.38c5.51-2.1,11.8-5.64,16.56-9.31,2.83-2.18,7.08-6.08,9.27-8.51,2.92-3.25,5.98-7.39,8.07-10.95.24-.41.51-.86.59-.99.51-.83,2.64-5.04,3.27-6.44,1.95-4.39,3.58-9.65,4.53-14.68.38-2.01.86-5.37.86-6.05v-.27l-8.81.02-8.82.03-.17,1.21c-.42,2.89-1.56,7.24-2.53,9.74-.14.36-.37.94-.5,1.3-.85,2.17-2.54,5.56-3.63,7.31-.67,1.09-2.41,3.66-2.83,4.19-.26.34-.72.93-1.01,1.31-.55.72-.62.79-2.06,2.42-1.54,1.73-4.52,4.5-6.3,5.86-.14.11-.4.31-.59.47-.3.23-1.15.83-2.27,1.63-2.82,1.96-7.59,4.41-10.9,5.6-2.79,1-5.3,1.7-8.1,2.23-1.44.27-2.18.38-5.1.71-1.44.17-5.18.23-7.09.11-6.54-.39-12.53-1.84-18.19-4.4-.97-.44-3.96-1.95-4.12-2.08-.08-.07-.46-.3-.85-.51-1.98-1.08-5.32-3.49-7.74-5.61-2.96-2.58-6.5-6.58-8.5-9.62-1.9-2.89-3.25-5.32-4.35-7.84-.21-.47-.44-.99-.51-1.16-.32-.73-.91-2.31-1.31-3.52-1.1-3.34-1.74-6.2-2.23-9.9-.26-1.96-.27-2.27-.27-6.13s.01-4.17.27-6.13c.31-2.36.66-4.25,1.1-5.98.26-1.08.43-1.65,1.09-3.82.51-1.7,1.76-4.69,2.84-6.86.34-.67.68-1.35.76-1.51.14-.27,1.4-2.4,1.77-2.99,1.45-2.28,3.61-5.11,5.33-6.96,1.21-1.32,3.33-3.35,4.62-4.45.77-.65,1.48-1.25,1.56-1.32.84-.72,4.39-3.14,5.68-3.86.33-.19.76-.44.95-.55.44-.26,4.09-2.09,4.17-2.09.03,0,.3-.11.58-.24.6-.28,1.36-.57,3.34-1.28,3.36-1.19,6.52-1.93,10.6-2.47,1.96-.26,2.26-.27,6.13-.27s4.17.01,6.13.27c6.97.93,12.93,2.88,18.62,6.09,1.55.87,1.46.81,2.08,1.21,4,2.5,7.49,5.41,10.79,9,2.49,2.72,5.1,6.34,6.77,9.4,1.01,1.86,1.96,3.81,2.61,5.38.39.95.82,2.1.82,2.18,0,.05-2.93.08-6.51.08h-6.51l-.28-.58c-.43-.88-2-3.48-2.71-4.49-.69-.97-2.05-2.69-2.77-3.51-1.63-1.86-4.36-4.33-6.22-5.64-.39-.28-.84-.59-.99-.71-.46-.34-2.36-1.51-3.21-1.96-1.01-.54-2.92-1.5-2.99-1.5-.03,0-.24-.09-.48-.19-3-1.38-7.77-2.57-11.53-2.91-1.48-.14-5.74-.14-7.23-.01-7.95.71-15.93,4.14-21.96,9.45-1.82,1.6-4.77,4.83-5.82,6.36-.2.29-.56.81-.81,1.18-1,1.43-2.32,3.77-3.11,5.53-.79,1.77-1.01,2.33-1.49,3.72-2.99,8.87-2.62,19.08,1,27.48.53,1.25.66,1.53,1.03,2.26,3.24,6.37,7.86,11.53,13.82,15.39,6.06,3.93,13.5,6.11,20.88,6.11,3.55,0,7.69-.56,10.52-1.42,2.22-.68,3.73-1.22,4.69-1.66.28-.13.55-.24.58-.24.15,0,3.17-1.56,4.01-2.07,2.38-1.45,2.98-1.88,5.29-3.77,1.99-1.64,4.63-4.46,6.23-6.66.3-.42.66-.91.8-1.11.14-.18.36-.52.5-.75s.41-.67.61-.99c.2-.31.53-.89.74-1.28.21-.39.5-.93.65-1.21.72-1.32,1.97-4.37,2.48-6.08.38-1.3,1-3.8,1.09-4.4l.07-.52-13.75.02-13.74.03-.5.72c-3.09,4.49-9.02,6.42-14.27,4.63-2.88-.98-5.31-2.98-6.89-5.69-1.6-2.73-2.05-6.49-1.16-9.61.74-2.55,2.07-4.59,4.06-6.23,1.57-1.29,3.03-2.03,5.07-2.58.81-.22,1.11-.24,2.96-.24,1.96,0,2.11.02,3.11.29,3.42.94,6.04,2.96,7.82,6.01l.45.78h68.79l.08.37c.12.63.09,8.88-.05,10.73-.37,5.03-1.38,10.97-2.63,15.47-.17.6-.38,1.36-.46,1.66-.2.71-1.24,3.83-1.65,4.92-.18.47-.39,1.06-.47,1.31-.09.25-.19.49-.23.55-.04.05-.17.37-.29.7s-.28.73-.36.9c-.08.16-.41.91-.74,1.67-1.44,3.23-3.95,7.89-5.58,10.34-.13.19-.51.77-.85,1.3-1.37,2.08-3.78,5.33-4.81,6.49-.1.11-.56.65-1.02,1.21-2.27,2.69-5.61,6.08-8.14,8.24-.58.49-1.08.93-1.11.97-.05.06-2.07,1.69-2.66,2.14-.11.09-.38.3-.6.46-1.34,1.03-4.62,3.3-6.18,4.26-.19.12-.48.3-.65.41-.5.31-1.79,1.05-1.84,1.05-.03,0-.13.06-.21.14-.29.24-4.38,2.36-5.94,3.06-.52.24-1.14.51-1.36.61-2.17.98-5.74,2.32-8.29,3.11-.58.18-1.33.41-1.66.51-1.92.59-5.86,1.51-8.49,1.96-.8.13-1.53.26-1.61.29-.36.1-5.54.65-7.03.75-3.45.21-10.5.1-13.21-.21-4.55-.52-5.66-.69-8.74-1.35-4-.85-6.51-1.56-10.2-2.86-.91-.32-1.77-.63-1.91-.69-.14-.05-.56-.22-.95-.37-.78-.29-1.31-.51-3.52-1.5-7.52-3.36-15.01-8.32-21.3-14.12-1.83-1.69-4.86-4.81-6.19-6.38-.19-.22-.39-.45-.45-.5-.16-.14-2.65-3.24-3-3.73-.17-.23-.69-.95-1.17-1.61-1.84-2.53-3.69-5.47-5.27-8.34-.72-1.31-2.19-4.25-2.64-5.27-.11-.25-.35-.81-.55-1.26-1.07-2.4-2.89-7.43-3.43-9.45-.14-.5-.39-1.43-.56-2.06-.55-2.03-1.28-5.39-1.56-7.23-.09-.58-.22-1.47-.3-1.96-.08-.5-.27-2.06-.42-3.47-.26-2.45-.27-2.79-.28-7.84,0-5.07.01-5.38.28-7.94.15-1.47.32-2.91.38-3.22.05-.3.18-1.15.29-1.88.63-4.25,2.15-10.09,3.74-14.4.59-1.61,1.16-3.04,1.34-3.47.07-.17.3-.68.5-1.16,1.18-2.74,3.52-7.31,4.71-9.17.2-.31.36-.59.36-.62s.09-.18.19-.33.39-.59.63-.97c1.06-1.66,2.04-3.09,3.12-4.57.75-1.02,2.94-3.81,3.12-3.97.06-.06.36-.39.66-.75,1.62-1.92,4.92-5.34,6.74-6.98,4.26-3.83,8.6-7.04,13.35-9.86.74-.45,1.43-.84,1.51-.88.08-.03.38-.2.65-.35.76-.44,5-2.55,6.08-3.03,4.15-1.84,8.88-3.46,13.31-4.55,2.41-.59,5.78-1.26,7.49-1.47.47-.06,1.29-.17,1.81-.25.97-.15,3.98-.4,6.48-.55,2.15-.13,7.01-.03,9.9.2Z"/>
  <path class="cls-1" d="m71.69,196.69c-3.29.18-7.14.99-10.07,2.13-6.21,2.42-11.54,7.05-14.69,12.76-1.59,2.87-2.64,6.1-3.25,9.96-.2,1.33-.22,1.8-.22,5.43,0,3.28.03,4.19.17,5.23.58,4.05,1.42,6.88,2.94,9.95,3.36,6.73,8.99,11.4,16.37,13.57,5.76,1.68,13.39,1.93,19.65.65,5.5-1.13,9.92-3.47,13.38-7.07,3.14-3.28,5.12-7.04,6.13-11.57.58-2.6.6-2.87.64-8.62l.05-5.35-13.76.02-13.75.03-.03,5.85-.02,5.86h11.06l-.06.47c-.31,2.24-1.07,3.85-2.5,5.35-2.05,2.12-4.78,3.03-9.05,3.03-2.68.01-4.41-.3-6.29-1.11-3.88-1.68-6.32-5.54-7.24-11.49-.19-1.25-.22-1.84-.22-4.55,0-2.47.03-3.37.17-4.32.64-4.37,1.97-7.31,4.38-9.71,1.15-1.15,2.2-1.86,3.52-2.41,3.39-1.41,8.27-1.27,11.26.33,2.3,1.23,3.74,3.29,4.38,6.28l.17.83h16.55v-.46c0-1.28-.54-3.96-1.21-5.97-1.73-5.28-5.09-9.03-10.55-11.8-4.98-2.53-11.18-3.67-17.94-3.31Z"/>
  <path class="cls-1" d="m77.38,197.03c9.02.7,16.38,4.36,20.2,10.04,1.86,2.75,2.97,5.93,3.44,9.73l.14,1.14h-16.13l-.07-.48c-.1-.73-.71-2.48-1.13-3.22-1.75-3.12-4.89-4.67-9.53-4.67-3.96,0-6.88,1.17-9.29,3.71-3.1,3.26-4.6,8.38-4.39,14.91.11,3.09.45,5.3,1.18,7.48.72,2.14,1.81,4.1,2.99,5.41,1.48,1.6,3.64,2.74,6.23,3.31,1.28.27,4.48.37,6.03.19,2.26-.26,4.31-.96,5.69-1.95,1.39-.98,2.67-2.67,3.25-4.26.48-1.32.69-2.87.42-3.04-.08-.05-2.44-.09-5.49-.09h-5.36v-11.15h27.06l-.06,4.74c-.05,4.96-.13,6.01-.58,8.32-.99,4.97-3.31,9.22-6.9,12.67-3.18,3.04-7,5.03-11.88,6.16-4.91,1.14-11.45,1.26-16.68.3-6.07-1.11-10.92-3.54-14.77-7.38-3.21-3.22-5.38-6.91-6.76-11.56-1.54-5.11-1.78-12.7-.59-18.14,1.46-6.61,5.02-12.13,10.57-16.32,4.56-3.44,10.21-5.46,16.43-5.87,1.23-.08,4.75-.06,5.99.03Z"/>
  <path class="cls-1" d="m179.96,196.78c-.19.02-.84.09-1.46.14-7.17.68-13.74,3.73-18.69,8.69-4.67,4.67-7.33,10.36-8.05,17.23-.21,2.07-.15,7.37.1,9.24.62,4.46,1.93,8.31,3.96,11.6,3.66,5.93,9.16,10.11,15.92,12.07,7.05,2.06,16.1,1.85,22.89-.51,4.26-1.48,7.56-3.56,10.75-6.76,1.64-1.65,2.69-2.95,3.77-4.64,3.68-5.79,5.16-13.28,4.31-21.69-.74-7.28-3.89-13.47-9.13-17.99-4.7-4.03-10.21-6.37-16.93-7.18-1.28-.16-6.55-.29-7.44-.19Z"/>
  <path class="cls-1" d="m186.04,197.13c7.67.65,14.02,3.34,18.98,8.05,4.72,4.48,7.32,9.83,8.16,16.87.22,1.77.25,6.75.06,8.54-.43,4.03-1.34,7.32-2.88,10.5-1.38,2.84-2.83,4.84-5.23,7.24-3.22,3.23-6.68,5.37-11.01,6.81-5.76,1.92-13.41,2.28-19.87.95-6.66-1.38-12.15-4.68-16.27-9.82-3.31-4.1-5.28-9.1-5.92-14.99-.24-2.17-.24-6.65,0-8.64.82-6.88,3.36-12.25,7.95-16.83,5.02-5.01,11.24-7.89,18.69-8.64,1.6-.16,5.7-.18,7.34-.05Z"/>
  <path class="cls-1" d="m181.22,209.59c-6.2.53-10.49,4.66-11.86,11.4-.41,2.04-.49,2.98-.49,5.78s.09,3.88.5,5.83c.7,3.38,1.98,5.87,4.11,7.99,1.56,1.57,2.8,2.35,4.8,3.01,2.66.88,6.27.86,8.93-.04,4.12-1.4,7.11-4.91,8.42-9.87.58-2.2.73-3.64.74-6.82.01-2.94-.05-3.66-.45-5.73-.78-3.93-2.8-7.33-5.54-9.27-2.44-1.74-5.8-2.57-9.17-2.28Z"/>
  <path class="cls-2" d="m185.45,210.08c5.1.99,8.65,4.68,10.08,10.51.46,1.88.56,2.95.56,6.18s-.09,4.2-.57,6.28c-1.27,5.49-4.61,9.28-9.28,10.52-1.18.31-1.24.32-3.51.32-2.1.01-2.4-.01-3.27-.23-2.5-.62-4.25-1.63-6.01-3.47-2.3-2.41-3.54-5.3-4.16-9.66-.17-1.21-.17-6.32,0-7.54.21-1.53.53-2.96.88-4.05,1.72-5.25,5.53-8.48,10.66-9.05,1.24-.14,3.43-.05,4.61.18Z"/>
  <path class="cls-1" d="m246.38,196.78c-.19.02-.84.09-1.46.14-7.17.68-13.74,3.73-18.69,8.69-4.67,4.67-7.33,10.36-8.05,17.23-.21,2.07-.15,7.37.1,9.24.62,4.46,1.93,8.31,3.96,11.6,3.66,5.93,9.16,10.11,15.92,12.07,7.05,2.06,16.1,1.85,22.89-.51,4.26-1.48,7.56-3.56,10.75-6.76,1.64-1.65,2.69-2.95,3.77-4.64,3.68-5.79,5.16-13.28,4.31-21.69-.74-7.28-3.89-13.47-9.13-17.99-4.7-4.03-10.21-6.37-16.93-7.18-1.28-.16-6.55-.29-7.44-.19Z"/>
  <path class="cls-1" d="m252.46,197.13c7.67.65,14.02,3.34,18.98,8.05,4.72,4.48,7.32,9.83,8.16,16.87.22,1.77.25,6.75.06,8.54-.43,4.03-1.34,7.32-2.88,10.5-1.38,2.84-2.83,4.84-5.23,7.24-3.22,3.23-6.68,5.37-11.01,6.81-5.76,1.92-13.41,2.28-19.87.95-6.66-1.38-12.15-4.68-16.27-9.82-3.31-4.1-5.28-9.1-5.92-14.99-.24-2.17-.24-6.65,0-8.64.82-6.88,3.36-12.25,7.95-16.83,5.02-5.01,11.24-7.89,18.69-8.64,1.6-.16,5.7-.18,7.34-.05Z"/>
  <path class="cls-1" d="m247.64,209.59c-6.2.53-10.49,4.66-11.86,11.4-.41,2.04-.49,2.98-.49,5.78s.09,3.88.5,5.83c.7,3.38,1.98,5.87,4.11,7.99,1.56,1.57,2.8,2.35,4.8,3.01,2.66.88,6.27.86,8.93-.04,4.12-1.4,7.11-4.91,8.42-9.87.58-2.2.73-3.64.74-6.82.01-2.94-.05-3.66-.45-5.73-.78-3.93-2.8-7.33-5.54-9.27-2.44-1.74-5.8-2.57-9.17-2.28Z"/>
  <path class="cls-2" d="m251.87,210.08c5.1.99,8.65,4.68,10.08,10.51.46,1.88.56,2.95.56,6.18s-.09,4.2-.57,6.28c-1.27,5.49-4.61,9.28-9.28,10.52-1.18.31-1.24.32-3.51.32-2.1.01-2.4-.01-3.27-.23-2.5-.62-4.25-1.63-6.01-3.47-2.3-2.41-3.54-5.3-4.16-9.66-.17-1.21-.17-6.32,0-7.54.21-1.53.53-2.96.88-4.05,1.72-5.25,5.53-8.48,10.66-9.05,1.24-.14,3.43-.05,4.61.18Z"/>
  <path class="cls-1" d="m425.99,196.84c-5.39.49-9.78,2.12-13.21,4.88-1.18.94-2.81,2.7-3.55,3.81-1.28,1.92-2.12,4.01-2.54,6.32-.26,1.4-.26,5.32-.01,6.97.94,6.04,3.59,9.54,8.95,11.82,2.97,1.26,6.95,2.25,11.52,2.86,3.43.46,5.98.99,7.63,1.6,1.81.66,2.64,1.53,2.98,3.1.25,1.23.11,2.47-.42,3.61-.43.91-1.59,2.01-2.65,2.52-1.45.68-3.3.99-5.28.87-3.02-.18-4.71-.77-6.09-2.15-1.18-1.18-1.89-2.69-2.2-4.66l-.13-.77h-15.97l.07.82c.52,6.44,2.93,11.06,7.44,14.3,1.07.76,3.5,2.01,4.92,2.52,5.18,1.86,13,2.43,19.08,1.4,9.32-1.59,16.01-7.88,17.2-16.19.21-1.48.2-4.43-.01-6.12-.59-4.61-2.43-7.91-5.61-10.03-3.5-2.34-8.54-3.86-15.95-4.79-3.32-.42-5.83-1-7.23-1.68-1.72-.82-2.61-2.26-2.61-4.18,0-1.31.42-2.32,1.35-3.25,1.16-1.16,2.59-1.64,5.08-1.72,1.32-.04,1.71-.02,2.56.16,2.13.43,3.71,1.59,4.55,3.33.39.78.82,2.18.82,2.63,0,.17.29.18,7.79.18h7.79v-.23c0-.49-.4-2.91-.65-3.95-.91-3.7-2.78-6.9-5.3-9.05-3.08-2.64-6.93-4.14-12.34-4.81-1.5-.19-6.51-.27-7.99-.13Z"/>
  <path class="cls-1" d="m433.88,197.23c3.58.44,6.1,1.15,8.59,2.36,4.68,2.3,7.65,6.14,8.92,11.56.24,1,.57,3,.57,3.41,0,.15-.62.16-7.5.14l-7.5-.03-.23-.92c-.67-2.63-2.43-4.43-4.98-5.05-.48-.12-1.37-.24-2.05-.27-2.74-.13-4.93.5-6.23,1.82-.73.73-1.12,1.43-1.31,2.34-.18.86-.18,1.41-.01,2.26.29,1.36.97,2.3,2.22,3.04,1.12.66,3.67,1.36,6.48,1.75,5.46.77,6.46.94,8.74,1.52,5.35,1.35,8.93,3.25,10.97,5.81,1.82,2.29,2.72,5.02,3,9.04.36,5.17-.98,9.59-4.05,13.23s-7.18,5.99-12.39,7.03c-2.26.45-3.89.59-6.98.59-6.35,0-11.02-.9-15.02-2.9-1.95-.97-3.14-1.83-4.62-3.32s-2.27-2.59-3.11-4.32c-1.14-2.32-1.76-4.66-2.02-7.62l-.06-.77h15.49v.29c0,.46.45,2.12.78,2.83,1.4,3.1,3.98,4.42,8.59,4.41,3.06,0,4.97-.66,6.45-2.23,1.03-1.09,1.5-2.31,1.49-3.9,0-1.99-.82-3.37-2.45-4.15-1.55-.74-4.02-1.32-8.32-1.93-13.67-1.94-18.81-5.49-20.32-13.98-.2-1.13-.23-1.65-.24-3.91,0-2.97.1-3.8.75-5.78.75-2.32,1.89-4.17,3.67-6.02,3.63-3.75,8.21-5.79,14.48-6.43,1.14-.12,7.05-.06,8.18.09Z"/>
  <polygon class="cls-1" points="110.33 226.87 110.33 256.21 129.82 256.21 149.32 256.21 149.32 249.68 149.32 243.15 138.21 243.15 127.11 243.15 127.11 220.34 127.11 197.53 118.72 197.53 110.33 197.53 110.33 226.87"/>
  <polygon class="cls-1" points="126.93 220.61 126.96 243.4 137.99 243.43 149.02 243.45 149.02 249.68 149.02 255.91 129.77 255.91 110.53 255.91 110.53 226.87 110.53 197.83 118.72 197.83 126.91 197.83 126.93 220.61"/>
  <path class="cls-1" d="m287.11,216.29c.04,20,.03,19.47.52,22.36.64,3.74,2.11,7.31,4.1,9.93.61.8,2.32,2.54,3.19,3.25,2.78,2.24,6.38,3.85,10.42,4.63,4.79.93,10.64.95,15.3.05,4.06-.77,7.47-2.22,10.33-4.37,4.12-3.09,6.72-7.6,7.81-13.5.49-2.7.48-2.31.52-22.34l.04-18.76h-16.99v17.62c0,11.04-.04,18.1-.1,18.91-.49,6.16-2.31,8.86-6.56,9.7-.87.18-1.31.2-2.93.16-1.64-.04-2.05-.08-2.88-.3-3.48-.91-5.17-3.39-5.76-8.36-.13-1.12-.15-3.89-.15-19.51v-18.22h-16.89l.04,18.76Z"/>
  <path class="cls-1" d="m303.69,216.34c.03,20.14,0,19.08.58,21.45,1.1,4.49,3.78,6.45,8.83,6.46,3.08,0,5.11-.68,6.68-2.26,1.2-1.19,1.88-2.65,2.35-5,.45-2.24.44-1.95.48-20.95l.04-18.21h16.37v17.81c0,11.1-.04,18.37-.1,19.27-.27,3.79-1.06,7.08-2.34,9.85-2.72,5.87-8.23,9.9-15.54,11.39-4.9.99-11.25.98-16.03-.04-9.56-2.05-15.47-8.07-17.08-17.38-.5-2.87-.48-2.12-.52-22.14l-.04-18.76h16.28l.04,18.51Z"/>
  <path class="cls-1" d="m349.48,226.88v29.34l12.34-.04c13.19-.04,13.41-.05,16.7-.57,6.91-1.12,12.08-3.61,16.14-7.76,1.88-1.92,3.07-3.59,4.27-5.94,2.02-3.98,2.98-8.01,3.2-13.34.27-6.83-.66-12.25-2.89-16.82-3.89-7.95-11.25-12.56-22.12-13.86-2.59-.31-4.81-.36-16.18-.36h-11.45v29.35Z"/>
  <path class="cls-1" d="m375.95,198.02c6.33.71,10.69,2.05,14.62,4.49,4.98,3.08,8.6,8.12,10.2,14.23.93,3.58,1.32,8.05,1.07,12.34-.31,5.18-1.26,8.98-3.18,12.76-1.23,2.39-2.64,4.29-4.69,6.28-2.01,1.96-3.76,3.18-6.36,4.43-3.51,1.69-6.87,2.58-12.06,3.17-.67.08-5.06.13-13.43.16l-12.44.04v-58.1l12.64.04c8.52.03,12.96.08,13.64.16Z"/>
  <path class="cls-1" d="m366.19,210.25c-.18.08-.19,33-.01,33.18.15.15,4.45.17,6.06.02,7.6-.7,11.41-4.56,12.48-12.61.21-1.54.23-6.33.05-7.94-.49-4.2-1.62-6.97-3.69-9.05-1.49-1.49-3.14-2.41-5.4-2.99-1.88-.49-2.83-.58-6.21-.62-1.74-.02-3.23-.01-3.29.02Z"/>
  <path class="cls-2" d="m374.1,210.78c1.52.28,2.84.7,4.02,1.27,1.27.62,2.01,1.17,2.97,2.18,2.01,2.14,3.08,5.11,3.47,9.61.13,1.6.07,5.66-.11,7-.53,3.99-1.65,6.68-3.64,8.75-1.77,1.84-3.97,2.88-7.19,3.43-.86.14-1.69.18-4.19.18h-3.11l-.03-16.37-.02-16.36,3.34.05c2.81.04,3.53.08,4.5.26Z"/>
  <path class="cls-1" d="m83.3,286.2v14.72h6.93v-3.17l.21.35c.94,1.57,2.34,2.58,4.14,3.01,1,.24,2.9.27,3.91.05,2.44-.51,4.57-2.25,5.66-4.61.82-1.77,1.11-3.57,1.02-6.52-.04-1.69-.09-2.2-.3-3.08-.84-3.53-3.01-5.93-6.12-6.75-1.07-.28-2.98-.3-4.05-.04-1.54.37-2.88,1.27-3.86,2.56l-.56.73-.03-5.99-.02-5.99h-6.93v14.72Z"/>
  <path class="cls-1" d="m89.93,277.57c0,3.79.04,5.85.1,5.98.18.33.37.22.97-.58.96-1.29,2.16-2.11,3.66-2.51.98-.27,3.1-.24,4.15.06,3.17.89,5.37,3.59,5.94,7.3.43,2.84.21,5.85-.59,8.01-.48,1.27-.9,1.92-1.92,2.94s-1.83,1.55-2.98,1.91c-3.42,1.09-6.89.04-8.46-2.54-.65-1.08-.86-.78-.86,1.2v1.3h-6.33v-28.84h6.33v5.79Z"/>
  <path class="cls-1" d="m92.69,285.15c-1.64.55-2.58,1.97-2.87,4.35-.21,1.72.09,3.76.71,4.84.39.68,1.08,1.31,1.79,1.64.75.34,2.2.43,3.09.18.68-.2,1.53-.73,1.88-1.2.39-.51.76-1.33.94-2.05.26-1.05.23-3.64-.05-4.69-.4-1.45-1.17-2.42-2.31-2.95-.78-.36-2.29-.42-3.19-.12Z"/>
  <path class="cls-2" d="m95.63,285.47c.3.11.76.4,1.07.68.95.87,1.36,2.01,1.45,4.07.09,2.11-.27,3.59-1.12,4.62-.72.88-2.22,1.37-3.59,1.15-1.71-.26-2.77-1.37-3.24-3.35-.16-.71-.15-3.39.02-4.08.34-1.39,1.17-2.53,2.15-2.99.94-.44,2.22-.48,3.26-.1Z"/>
  <polygon class="cls-1" points="130.43 286.2 130.43 300.92 133.89 300.92 137.36 300.92 137.36 286.2 137.36 271.48 133.89 271.48 130.43 271.48 130.43 286.2"/>
  <polygon class="cls-1" points="137.06 286.2 137.06 300.62 133.89 300.62 130.73 300.62 130.73 286.2 130.73 271.78 133.89 271.78 137.06 271.78 137.06 286.2"/>
  <polygon class="cls-1" points="141.48 286.2 141.48 300.92 144.95 300.92 148.41 300.92 148.41 286.2 148.41 271.48 144.95 271.48 141.48 271.48 141.48 286.2"/>
  <polygon class="cls-1" points="148.11 286.2 148.11 300.62 144.95 300.62 141.78 300.62 141.78 286.2 141.78 271.78 144.95 271.78 148.11 271.78 148.11 286.2"/>
  <path class="cls-1" d="m320.72,272.74c-3.31.47-6.01,1.82-8.27,4.11-1.96,1.99-3.16,4.4-3.62,7.23-.44,2.74-.21,6.04.6,8.45,1.07,3.18,3.34,5.82,6.27,7.28.89.44,2.8,1.06,3.93,1.26,1.28.23,4.71.31,6.13.15,3.21-.37,5.65-1.46,7.6-3.37,1.61-1.58,2.55-3.21,3.1-5.35.33-1.27.45-2.6.45-4.96v-2h-13.06v5.53h5.23l-.06.32c-.25,1.48-1.09,2.66-2.3,3.28-.76.38-1.49.53-2.76.59-2.26.1-3.73-.36-4.93-1.57-1.48-1.48-2.22-4.09-2.07-7.3.04-.72.15-1.72.26-2.21.74-3.56,3.14-5.53,6.49-5.35,2.51.14,4.03,1.27,4.51,3.37l.13.57,3.93.03,3.94.02v-.29c0-.16-.07-.66-.15-1.11-.66-3.48-2.39-5.76-5.57-7.35-.9-.45-2.8-1.06-3.93-1.26-1.3-.23-4.55-.29-5.85-.1Z"/>
  <path class="cls-1" d="m326.01,273.04c4.13.62,7.35,2.61,8.76,5.42.57,1.15,1.14,3.05,1.14,3.89,0,.18-.14.19-3.66.19h-3.67l-.16-.57c-.62-2.14-2.1-3.23-4.66-3.4-2.41-.17-4.6.91-5.79,2.86-1.03,1.7-1.52,4.39-1.27,7.03.15,1.61.44,2.7.98,3.82.81,1.65,1.99,2.61,3.75,3.08.91.24,3.31.24,4.21-.01,1.32-.36,2.25-.98,2.87-1.93.64-.96.97-2.44.59-2.59-.09-.03-1.27-.06-2.61-.06h-2.45v-5.02h12.58l-.05,2.63c-.07,3.31-.28,4.44-1.21,6.26-1.35,2.68-3.49,4.56-6.33,5.57-3.26,1.15-8.19,1.17-11.52.05-4.53-1.52-7.5-5.08-8.42-10.14-.24-1.31-.24-4.87,0-6.18.63-3.42,2.36-6.22,5.09-8.28,1.94-1.46,4.23-2.36,6.88-2.7.84-.11,4-.06,4.92.08Z"/>
  <polygon class="cls-1" points="0 286.96 0 300.92 4.02 300.92 8.04 300.92 8.04 295.95 8.04 290.98 12.36 290.98 16.68 290.98 16.68 288.06 16.68 285.15 12.36 285.15 8.04 285.15 8.04 282.18 8.04 279.22 13.44 279.2 18.84 279.17 18.87 276.08 18.89 272.99 9.45 272.99 0 272.99 0 286.96"/>
  <path class="cls-1" d="m18.59,276.11v2.81h-5.31c-3.99,0-5.34.03-5.43.12-.17.17-.17,6.12,0,6.29.09.09,1.19.12,4.32.12h4.2v5.33h-4.26c-3.79,0-4.27.02-4.32.16-.03.09-.06,2.3-.06,4.92v4.76H.3v-27.33h18.29v2.81Z"/>
  <polygon class="cls-1" points="160.47 286.96 160.47 300.92 164.49 300.92 168.51 300.92 168.51 286.96 168.51 272.99 164.49 272.99 160.47 272.99 160.47 286.96"/>
  <polygon class="cls-1" points="168.21 286.96 168.21 300.62 164.44 300.62 160.67 300.62 160.67 286.96 160.67 273.29 164.44 273.29 168.21 273.29 168.21 286.96"/>
  <path class="cls-1" d="m69.33,278.37v2.16h-2.41v4.72h2.4l.04,5.35c.04,6.01.05,6.12.76,7.57,1.07,2.17,3.06,3.17,6.33,3.17,1.27,0,1.77-.06,3.21-.36l.72-.16v-5.31l-.26.11c-.15.05-.6.14-1.01.2-1.31.18-2.13-.12-2.57-.94-.22-.41-.22-.48-.25-5.02l-.03-4.59h4.03v-4.72l-1.98-.02-1.99-.03-.03-2.14-.02-2.13h-6.93v2.16Z"/>
  <path class="cls-1" d="m76.07,278.57c0,1.93.01,2.06.19,2.16.12.06.95.1,2.01.1h1.82v4.12h-1.88c-1.05,0-1.95.04-2.02.08-.1.07-.12,1.07-.1,4.85.03,4.6.04,4.77.24,5.16.11.22.4.53.63.7.41.29.47.3,1.5.3.59,0,1.2-.03,1.36-.08l.27-.07v4.69l-.52.11c-1.39.29-1.94.35-3.2.35-2.06-.01-3.25-.33-4.48-1.2-.95-.66-1.6-1.67-2.01-3.1-.16-.53-.18-1.25-.22-6.08-.02-3.65-.07-5.52-.14-5.6-.07-.09-.44-.13-1.25-.13h-1.15v-4.1l1.16-.04c.89-.02,1.19-.06,1.26-.18.05-.08.1-1.05.1-2.14v-1.98h6.43v2.06Z"/>
  <path class="cls-1" d="m448.65,278.37v2.16h-2.41v4.72h2.4l.04,5.35c.04,6.01.05,6.12.76,7.57,1.07,2.17,3.06,3.17,6.33,3.17,1.27,0,1.77-.06,3.21-.36l.72-.16v-5.31l-.26.11c-.15.05-.6.14-1.01.2-1.31.18-2.13-.12-2.57-.94-.22-.41-.22-.48-.25-5.02l-.03-4.59h4.03v-4.72l-1.98-.02-1.99-.03-.03-2.14-.02-2.13h-6.93v2.16Z"/>
  <path class="cls-1" d="m455.39,278.57c0,1.93.01,2.06.19,2.16.12.06.95.1,2.01.1h1.82v4.12h-1.88c-1.05,0-1.95.04-2.02.08-.1.07-.12,1.07-.1,4.85.03,4.6.04,4.77.24,5.16.11.22.4.53.63.7.41.29.47.3,1.5.3.59,0,1.2-.03,1.36-.08l.27-.07v4.69l-.52.11c-1.39.29-1.94.35-3.2.35-2.06-.01-3.25-.33-4.48-1.2-.95-.66-1.6-1.67-2.01-3.1-.16-.53-.18-1.25-.22-6.08-.02-3.65-.07-5.52-.14-5.6-.07-.09-.44-.13-1.25-.13h-1.15v-4.1l1.16-.04c.89-.02,1.19-.06,1.26-.18.05-.08.1-1.05.1-2.14v-1.98h6.43v2.06Z"/>
  <path class="cls-1" d="m29.3,280.03c-2.77.29-5.08,1.37-6.91,3.23-1.88,1.91-2.79,4.35-2.79,7.52,0,3.68,1.21,6.34,3.75,8.27,2.06,1.58,4.35,2.28,7.42,2.28,3.43,0,6.02-.95,8.17-3,2-1.92,2.97-4.44,2.97-7.7,0-2.15-.44-3.99-1.32-5.55-.6-1.08-2.24-2.72-3.41-3.44-2.22-1.35-4.98-1.91-7.88-1.61Z"/>
  <path class="cls-1" d="m32.41,280.33c3.91.45,7.13,2.73,8.46,5.98.49,1.23.64,2.01.7,3.77.1,2.92-.4,4.91-1.73,6.78-.52.73-1.71,1.88-2.49,2.39-3.54,2.34-9.16,2.47-12.81.29-2.18-1.31-3.7-3.29-4.31-5.63-.21-.79-.26-1.29-.3-2.68-.07-2.42.19-3.84,1.03-5.53,1.36-2.7,4.33-4.8,7.48-5.27.41-.06.86-.13,1-.15.54-.07,2.1-.05,2.96.04Z"/>
  <path class="cls-1" d="m29.84,284.96c-.73.14-1.66.65-2.1,1.17-.84.95-1.21,2.08-1.29,4.01-.14,3.32.74,5.32,2.7,6.1.78.31,2.42.3,3.22-.02,1.24-.48,2.21-1.78,2.54-3.38.2-.95.2-3.35-.01-4.35-.31-1.57-1-2.6-2.09-3.14-.95-.47-1.93-.59-2.97-.39Z"/>
  <path class="cls-2" d="m31.86,285.29c1.44.33,2.26,1.23,2.72,2.95.16.62.2,1.09.2,2.38.01,2.31-.32,3.44-1.3,4.48-.65.7-1.34,1-2.39,1.08-2.92.18-4.37-1.65-4.37-5.51,0-2.07.34-3.35,1.17-4.3.87-1.02,2.43-1.45,3.97-1.09Z"/>
  <path class="cls-1" d="m53.22,280.03c-2.77.29-5.08,1.37-6.91,3.23-1.88,1.91-2.79,4.35-2.79,7.52,0,3.68,1.21,6.34,3.75,8.27,2.06,1.58,4.35,2.28,7.42,2.28,3.43,0,6.02-.95,8.17-3,2-1.92,2.97-4.44,2.97-7.7,0-2.15-.44-3.99-1.32-5.55-.6-1.08-2.24-2.72-3.41-3.44-2.22-1.35-4.98-1.91-7.88-1.61Z"/>
  <path class="cls-1" d="m56.32,280.33c3.91.45,7.13,2.73,8.46,5.98.49,1.23.64,2.01.7,3.77.1,2.92-.4,4.91-1.73,6.78-.52.73-1.71,1.88-2.49,2.39-3.54,2.34-9.16,2.47-12.81.29-2.18-1.31-3.7-3.29-4.31-5.63-.21-.79-.26-1.29-.3-2.68-.07-2.42.19-3.84,1.03-5.53,1.36-2.7,4.33-4.8,7.48-5.27.41-.06.86-.13,1-.15.54-.07,2.1-.05,2.96.04Z"/>
  <path class="cls-1" d="m53.76,284.96c-.73.14-1.66.65-2.1,1.17-.84.95-1.21,2.08-1.29,4.01-.14,3.32.74,5.32,2.7,6.1.78.31,2.42.3,3.22-.02,1.24-.48,2.21-1.78,2.54-3.38.2-.95.2-3.35-.01-4.35-.31-1.57-1-2.6-2.09-3.14-.95-.47-1.93-.59-2.97-.39Z"/>
  <path class="cls-2" d="m55.78,285.29c1.44.33,2.26,1.23,2.72,2.95.16.62.2,1.09.2,2.38.01,2.31-.32,3.44-1.3,4.48-.65.7-1.34,1-2.39,1.08-2.92.18-4.37-1.65-4.37-5.51,0-2.07.34-3.35,1.17-4.3.87-1.02,2.43-1.45,3.97-1.09Z"/>
  <path class="cls-1" d="m115.76,280.02c-4.48.45-7.26,2.56-7.98,6.05-.27,1.34-.65,1.19,3.08,1.19h3.26l.16-.6c.35-1.25,1.4-1.89,2.93-1.79.97.06,1.58.36,1.92.93.33.57.42.9.5,1.92l.07.84h-1.35c-1.64,0-3.76.15-4.92.35-4.57.79-6.8,3.09-6.58,6.8.17,2.81,1.64,4.58,4.43,5.37.9.25,3.33.31,4.39.1,1.55-.3,3.06-1.24,3.95-2.42.13-.18.14-.09.15.97v1.19h6.84l-.04-7.37c-.03-7.16-.04-7.38-.25-8.19-.76-2.89-2.73-4.54-6.2-5.18-1.02-.19-3.27-.27-4.37-.16Z"/>
  <path class="cls-1" d="m119.15,280.33c1.97.22,3.65.83,4.84,1.77.97.76,1.64,1.83,2.04,3.24.21.75.21.97.25,8.03l.03,7.26h-6.23l-.03-1.14c-.03-1.05-.04-1.13-.23-1.16-.15-.02-.33.12-.61.47-.84,1.03-1.85,1.67-3.25,2.04-1.11.29-3.35.29-4.48-.01-2.92-.77-4.37-2.62-4.37-5.59.01-2.88,1.66-4.81,4.88-5.72,1.44-.4,2.82-.57,5.4-.63,2.19-.05,2.4-.08,2.49-.24.06-.13.06-.52,0-1.18-.08-.78-.17-1.11-.43-1.63-.29-.58-.39-.68-.92-.95-.54-.27-.68-.3-1.57-.3s-1.02.03-1.56.3c-.68.35-1.21.95-1.38,1.62l-.12.44h-6l.07-.48c.12-.87.57-2.06,1.08-2.8,1.7-2.55,5.58-3.83,10.1-3.35Z"/>
  <path class="cls-1" d="m116.41,292.29c-2.17.23-3.08,1.09-2.93,2.72.1,1.09.73,1.69,2.01,1.89,1.76.28,3.61-.57,4.19-1.93.18-.41.23-.73.24-1.55,0-.56-.03-1.07-.07-1.12-.12-.11-2.45-.13-3.44-.02Z"/>
  <path class="cls-2" d="m119.65,293.46c-.06,1.2-.26,1.72-.9,2.3-.66.61-1.43.87-2.59.88-.81.01-1.02-.03-1.43-.22-.62-.31-.9-.71-.96-1.39-.06-.75.05-1.2.38-1.59.61-.69,1.63-.93,4.11-.95h1.45s-.05.96-.05.96Z"/>
  <path class="cls-1" d="m185.49,280.02c-2.16.3-4.02,1.46-5.16,3.22l-.36.55v-3.27h-6.93v20.4h6.93v-6.04c0-6.7.02-6.98.63-7.91.36-.53,1.1-1.07,1.71-1.25.56-.16,1.84-.15,2.32.01.55.19,1.2.82,1.48,1.45l.24.52.03,6.6.03,6.61h6.93l-.03-7.72c-.03-7.57-.04-7.72-.25-8.48-.69-2.44-2.17-3.96-4.42-4.54-.75-.2-2.31-.27-3.15-.16Z"/>
  <path class="cls-1" d="m188.96,280.57c1.51.5,2.6,1.45,3.28,2.82.83,1.71.89,2.37.89,10.57v6.66h-6.43v-6.13c0-4.14-.04-6.29-.11-6.65-.35-1.66-1.4-2.49-3.09-2.49-1.8,0-3.05.85-3.59,2.44-.16.47-.18,1.14-.21,6.67l-.04,6.16h-6.32v-19.8h6.33v1.39c0,1.93.22,2.19.94,1.1.42-.63,1.44-1.63,2.07-2.03,1.19-.74,2.57-1.08,4.32-1.01.91.03,1.33.09,1.96.3Z"/>
  <path class="cls-1" d="m205.34,280.02c-4.18.48-7.55,3-8.77,6.58-.73,2.17-.82,5.42-.2,7.78.85,3.28,3.38,5.66,7,6.61,1.3.34,4.25.44,5.81.19,3.25-.51,5.52-1.98,6.75-4.38.55-1.07.78-1.88.96-3.4l.07-.52h-6.32l-.06.45c-.07.62-.6,1.67-1.05,2.07-1.55,1.36-4.31,1.11-5.47-.48-.71-1-.99-2.18-.99-4.18.01-2.74.73-4.35,2.3-5.07.49-.23.69-.27,1.57-.27s1.09.04,1.51.23c.87.4,1.43,1.1,1.69,2.13l.14.55h6.51l-.04-.45c-.23-3.4-2.47-6.29-5.62-7.27-1.66-.52-4.09-.75-5.8-.56Z"/>
  <path class="cls-1" d="m208.57,280.34c2.09.23,3.73.83,4.93,1.81,1.63,1.32,2.62,3.11,2.91,5.31l.09.61h-5.99l-.12-.42c-.39-1.47-1.47-2.38-2.97-2.55-1.71-.18-3.26.63-3.98,2.1-.43.89-.58,1.62-.64,3.14-.14,3.72,1.02,5.77,3.53,6.19,1.3.22,2.85-.25,3.58-1.09.38-.42.76-1.18.91-1.78l.11-.46h5.72l-.07.52c-.28,2.23-1.27,4.08-2.83,5.33-1.77,1.41-3.86,2.01-6.95,2.02-2.31.01-3.88-.31-5.48-1.12-2.52-1.27-4.01-3.09-4.75-5.85-.24-.89-.26-1.1-.26-3.27s.02-2.36.27-3.31c1.36-5.03,6.06-7.85,12-7.18Z"/>
  <path class="cls-1" d="m227.95,280.03c-2.77.29-5.08,1.37-6.91,3.23-1.88,1.91-2.79,4.35-2.79,7.52,0,3.68,1.21,6.34,3.75,8.27,2.06,1.58,4.35,2.28,7.42,2.28,3.43,0,6.02-.95,8.17-3,2-1.92,2.97-4.44,2.97-7.7,0-2.15-.44-3.99-1.32-5.55-.6-1.08-2.24-2.72-3.41-3.44-2.22-1.35-4.98-1.91-7.88-1.61Z"/>
  <path class="cls-1" d="m231.06,280.33c3.91.45,7.13,2.73,8.46,5.98.49,1.23.64,2.01.7,3.77.1,2.92-.4,4.91-1.73,6.78-.52.73-1.71,1.88-2.49,2.39-3.54,2.34-9.16,2.47-12.81.29-2.18-1.31-3.7-3.29-4.31-5.63-.21-.79-.26-1.29-.3-2.68-.07-2.42.19-3.84,1.03-5.53,1.36-2.7,4.33-4.8,7.48-5.27.41-.06.86-.13,1-.15.54-.07,2.1-.05,2.96.04Z"/>
  <path class="cls-1" d="m228.5,284.96c-.73.14-1.66.65-2.1,1.17-.84.95-1.21,2.08-1.29,4.01-.14,3.32.74,5.32,2.7,6.1.78.31,2.42.3,3.22-.02,1.24-.48,2.21-1.78,2.54-3.38.2-.95.2-3.35-.01-4.35-.31-1.57-1-2.6-2.09-3.14-.95-.47-1.93-.59-2.97-.39Z"/>
  <path class="cls-2" d="m230.52,285.29c1.44.33,2.26,1.23,2.72,2.95.16.62.2,1.09.2,2.38.01,2.31-.32,3.44-1.3,4.48-.65.7-1.34,1-2.39,1.08-2.92.18-4.37-1.65-4.37-5.51,0-2.07.34-3.35,1.17-4.3.87-1.02,2.43-1.45,3.97-1.09Z"/>
  <path class="cls-1" d="m255.48,280.02c-1.98.31-3.75,1.4-4.83,2.97l-.39.56-.03-1.52-.03-1.52h-6.92v20.4h6.92l.03-6.46c.04-7.4-.01-7.03.93-7.98.39-.38.66-.55,1.06-.67.62-.18,1.49-.21,2.04-.05.47.13,1.13.7,1.38,1.21.36.69.4,1.5.4,7.8v6.16h6.82l.03-6.46c.04-7.4-.01-7.03.93-7.98.66-.65,1.34-.88,2.4-.81,1.02.07,1.65.46,2.07,1.29.37.72.4,1.39.4,7.76v6.21h6.93v-7.01c0-6.95-.04-8-.35-9.22-.48-1.83-1.76-3.41-3.34-4.12-.99-.44-1.7-.57-3.09-.57-1.51.01-2.42.21-3.63.78-.74.36-2.09,1.37-2.38,1.78-.09.13-.27.36-.4.52l-.25.28-.33-.63c-.66-1.26-1.88-2.17-3.35-2.55-.77-.19-2.25-.26-3.02-.15Z"/>
  <path class="cls-1" d="m258.05,280.37c1.58.28,2.87,1.21,3.59,2.55.43.81.61.82,1.23.06.48-.6,1.37-1.35,2.12-1.79,1.67-.95,4.35-1.23,6.2-.61,1.96.65,3.25,2.09,3.86,4.32.22.79.23.91.26,8.26l.03,7.47h-6.43l-.03-6.61-.03-6.6-.27-.51c-.58-1.1-1.55-1.62-2.85-1.52-1.63.12-2.66,1.03-3,2.64-.12.56-.15,1.83-.15,6.64v5.96h-6.32l-.03-6.56-.03-6.55-.24-.52c-.51-1.14-1.59-1.72-2.94-1.61-1.14.1-2.02.62-2.55,1.53-.51.87-.54,1.32-.54,7.76v5.96h-6.33v-19.8h6.33v1.32c0,1.9.19,2.11.93,1.07.54-.75,1.13-1.32,1.92-1.87,1.38-.95,3.37-1.32,5.3-.97Z"/>
  <path class="cls-1" d="m287.73,280.02c-4.49.51-7.98,3.29-9.13,7.26-.38,1.31-.49,2.43-.43,4.14.08,2.3.56,3.93,1.62,5.52,1.46,2.19,3.96,3.71,6.96,4.23,1.13.2,3.89.2,5.15,0,3.45-.52,5.89-2.14,6.98-4.6.22-.51.65-2,.65-2.27,0-.08-.98-.11-3.26-.11h-3.26l-.16.46c-.09.26-.27.62-.41.81-1.01,1.32-3.94,1.52-5.6.37-.79-.55-1.47-1.81-1.64-3.03l-.07-.52h14.42l-.06-1.99c-.08-2.5-.34-3.78-1.13-5.35-1.21-2.4-3.74-4.19-6.78-4.76-1.01-.2-2.86-.27-3.87-.16Z"/>
  <path class="cls-1" d="m291.09,280.39c2.45.36,4.64,1.52,6.05,3.19,1.44,1.71,2.1,3.9,2.1,6.97v1.44h-6.9c-3.81,0-7.01.03-7.13.06-.3.08-.35.38-.18,1.2.2.94.66,1.85,1.24,2.42,1.27,1.28,3.66,1.6,5.42.73.69-.33,1.16-.81,1.4-1.47l.17-.43h3c2.81,0,3,.01,2.95.17-.03.1-.1.38-.16.63-.44,1.72-1.71,3.4-3.26,4.31-3,1.79-8.53,1.99-11.86.43-2.73-1.29-4.49-3.38-5.2-6.21-.2-.78-.23-1.16-.23-3s.03-2.21.23-3.01c.32-1.23,1.18-2.93,1.94-3.84,2.39-2.85,6.3-4.2,10.43-3.59Z"/>
  <path class="cls-1" d="m288.14,284.35c-.63.16-1.56.71-1.96,1.17-.2.23-.49.67-.64.98-.32.66-.62,1.79-.54,2.01.06.14.52.16,3.98.16s3.93-.02,4.01-.16c.05-.08.05-.42,0-.77-.23-1.69-.94-2.71-2.23-3.22-.59-.22-2.01-.32-2.61-.17Z"/>
  <path class="cls-2" d="m290.8,284.82c1.13.49,1.72,1.45,1.95,3.11l.06.43h-3.77c-3.05,0-3.77-.03-3.77-.13,0-.25.32-1.23.56-1.7.46-.91,1.19-1.53,2.18-1.85.61-.2,2.19-.12,2.78.13Z"/>
  <path class="cls-1" d="m348.32,280.02c-4.49.51-7.98,3.29-9.13,7.26-.38,1.31-.49,2.43-.43,4.14.08,2.3.56,3.93,1.62,5.52,1.46,2.19,3.96,3.71,6.96,4.23,1.13.2,3.89.2,5.15,0,3.45-.52,5.89-2.14,6.98-4.6.22-.51.65-2,.65-2.27,0-.08-.98-.11-3.26-.11h-3.26l-.16.46c-.09.26-.27.62-.41.81-1.01,1.32-3.94,1.52-5.6.37-.79-.55-1.47-1.81-1.64-3.03l-.07-.52h14.42l-.06-1.99c-.08-2.5-.34-3.78-1.13-5.35-1.21-2.4-3.74-4.19-6.78-4.76-1.01-.2-2.86-.27-3.87-.16Z"/>
  <path class="cls-1" d="m351.68,280.39c2.45.36,4.64,1.52,6.05,3.19,1.44,1.71,2.1,3.9,2.1,6.97v1.44h-6.9c-3.81,0-7.01.03-7.13.06-.3.08-.35.38-.18,1.2.2.94.66,1.85,1.24,2.42,1.27,1.28,3.66,1.6,5.42.73.69-.33,1.16-.81,1.4-1.47l.17-.43h3c2.81,0,3,.01,2.95.17-.03.1-.1.38-.16.63-.44,1.72-1.71,3.4-3.26,4.31-3,1.79-8.53,1.99-11.86.43-2.73-1.29-4.49-3.38-5.2-6.21-.2-.78-.23-1.16-.23-3s.03-2.21.23-3.01c.32-1.23,1.18-2.93,1.94-3.84,2.39-2.85,6.3-4.2,10.43-3.59Z"/>
  <path class="cls-1" d="m348.73,284.35c-.63.16-1.56.71-1.96,1.17-.2.23-.49.67-.64.98-.32.66-.62,1.79-.54,2.01.06.14.52.16,3.98.16s3.93-.02,4.01-.16c.05-.08.05-.42,0-.77-.23-1.69-.94-2.71-2.23-3.22-.59-.22-2.01-.32-2.61-.17Z"/>
  <path class="cls-2" d="m351.39,284.82c1.13.49,1.72,1.45,1.95,3.11l.06.43h-3.77c-3.05,0-3.77-.03-3.77-.13,0-.25.32-1.23.56-1.7.46-.91,1.19-1.53,2.18-1.85.61-.2,2.19-.12,2.78.13Z"/>
  <path class="cls-1" d="m375.3,280.02c-2.16.3-4.02,1.46-5.16,3.22l-.36.55v-3.27h-6.93v20.4h6.93v-6.04c0-6.7.02-6.98.63-7.91.36-.53,1.1-1.07,1.71-1.25.56-.16,1.84-.15,2.32.01.55.19,1.2.82,1.48,1.45l.24.52.03,6.6.03,6.61h6.93l-.03-7.72c-.03-7.57-.04-7.72-.25-8.48-.69-2.44-2.17-3.96-4.42-4.54-.75-.2-2.31-.27-3.15-.16Z"/>
  <path class="cls-1" d="m378.77,280.57c1.51.5,2.6,1.45,3.28,2.82.83,1.71.89,2.37.89,10.57v6.66h-6.43v-6.13c0-4.14-.04-6.29-.11-6.65-.35-1.66-1.4-2.49-3.09-2.49-1.8,0-3.05.85-3.59,2.44-.16.47-.18,1.14-.21,6.67l-.04,6.16h-6.32v-19.8h6.33v1.39c0,1.93.22,2.19.94,1.1.42-.63,1.44-1.63,2.07-2.03,1.19-.74,2.57-1.08,4.32-1.01.91.03,1.33.09,1.96.3Z"/>
  <path class="cls-1" d="m395.35,280.02c-4.49.51-7.98,3.29-9.13,7.26-.38,1.31-.49,2.43-.43,4.14.08,2.3.56,3.93,1.62,5.52,1.46,2.19,3.96,3.71,6.96,4.23,1.13.2,3.89.2,5.15,0,3.45-.52,5.89-2.14,6.98-4.6.22-.51.65-2,.65-2.27,0-.08-.98-.11-3.26-.11h-3.26l-.16.46c-.09.26-.27.62-.41.81-1.01,1.32-3.94,1.52-5.6.37-.79-.55-1.47-1.81-1.64-3.03l-.07-.52h14.42l-.06-1.99c-.08-2.5-.34-3.78-1.13-5.35-1.21-2.4-3.74-4.19-6.78-4.76-1.01-.2-2.86-.27-3.87-.16Z"/>
  <path class="cls-1" d="m398.7,280.39c2.45.36,4.64,1.52,6.05,3.19,1.44,1.71,2.1,3.9,2.1,6.97v1.44h-6.9c-3.81,0-7.01.03-7.13.06-.3.08-.35.38-.18,1.2.2.94.66,1.85,1.24,2.42,1.27,1.28,3.66,1.6,5.42.73.69-.33,1.16-.81,1.4-1.47l.17-.43h3c2.81,0,3,.01,2.95.17-.03.1-.1.38-.16.63-.44,1.72-1.71,3.4-3.26,4.31-3,1.79-8.53,1.99-11.86.43-2.73-1.29-4.49-3.38-5.2-6.21-.2-.78-.23-1.16-.23-3s.03-2.21.23-3.01c.32-1.23,1.18-2.93,1.94-3.84,2.39-2.85,6.3-4.2,10.43-3.59Z"/>
  <path class="cls-1" d="m395.76,284.35c-.63.16-1.56.71-1.96,1.17-.2.23-.49.67-.64.98-.32.66-.62,1.79-.54,2.01.06.14.52.16,3.98.16s3.93-.02,4.01-.16c.05-.08.05-.42,0-.77-.23-1.69-.94-2.71-2.23-3.22-.59-.22-2.01-.32-2.61-.17Z"/>
  <path class="cls-2" d="m398.41,284.82c1.13.49,1.72,1.45,1.95,3.11l.06.43h-3.77c-3.05,0-3.77-.03-3.77-.13,0-.25.32-1.23.56-1.7.46-.91,1.19-1.53,2.18-1.85.61-.2,2.19-.12,2.78.13Z"/>
  <path class="cls-1" d="m433.48,280.02c-4.48.45-7.26,2.56-7.98,6.05-.27,1.34-.65,1.19,3.08,1.19h3.26l.16-.6c.35-1.25,1.4-1.89,2.93-1.79.97.06,1.58.36,1.92.93.33.57.42.9.5,1.92l.07.84h-1.35c-1.64,0-3.76.15-4.92.35-4.57.79-6.8,3.09-6.58,6.8.15,2.39,1.17,3.96,3.18,4.89,1.08.5,1.73.63,3.34.68,1.87.06,2.78-.1,4.06-.72.74-.36,1.05-.58,1.63-1.21l.72-.75v2.31h6.84l-.04-7.37c-.03-7.16-.04-7.38-.25-8.19-.76-2.89-2.73-4.54-6.2-5.18-1.02-.19-3.27-.27-4.37-.16Z"/>
  <path class="cls-1" d="m436.88,280.33c1.97.22,3.65.83,4.84,1.77.97.76,1.64,1.83,2.04,3.24.21.75.21.97.25,8.03l.03,7.26h-6.23l-.03-1.14c-.03-1.05-.04-1.13-.23-1.16-.15-.02-.33.12-.61.47-.84,1.03-1.85,1.67-3.25,2.04-1.11.29-3.35.29-4.48-.01-2.92-.77-4.37-2.62-4.37-5.59.01-2.88,1.66-4.81,4.88-5.72,1.44-.4,2.82-.57,5.4-.63,2.19-.05,2.4-.08,2.49-.24.06-.13.06-.52,0-1.18-.08-.78-.17-1.11-.43-1.63-.29-.58-.39-.68-.92-.95-.54-.27-.68-.3-1.57-.3s-1.02.03-1.56.3c-.68.35-1.21.95-1.38,1.62l-.12.44h-6l.07-.48c.12-.87.57-2.06,1.08-2.8,1.7-2.55,5.58-3.83,10.1-3.35Z"/>
  <path class="cls-1" d="m434.13,292.29c-2.17.23-3.08,1.09-2.93,2.72.1,1.09.73,1.69,2.01,1.89,1.76.28,3.61-.57,4.19-1.93.18-.41.23-.73.24-1.55,0-.56-.03-1.07-.07-1.12-.12-.11-2.45-.13-3.44-.02Z"/>
  <path class="cls-2" d="m437.38,293.46c-.06,1.2-.26,1.72-.9,2.3-.66.61-1.43.87-2.59.88-.81.01-1.02-.03-1.43-.22-.62-.31-.9-.71-.96-1.39-.06-.75.05-1.2.38-1.59.61-.69,1.63-.93,4.11-.95h1.45s-.05.96-.05.96Z"/>
  <path class="cls-1" d="m471.12,280.03c-2.77.29-5.08,1.37-6.91,3.23-1.88,1.91-2.79,4.35-2.79,7.52,0,3.68,1.21,6.34,3.75,8.27,2.06,1.58,4.35,2.28,7.42,2.28,3.43,0,6.02-.95,8.17-3,2-1.92,2.97-4.44,2.97-7.7,0-2.15-.44-3.99-1.32-5.55-.6-1.08-2.24-2.72-3.41-3.44-2.22-1.35-4.98-1.91-7.88-1.61Z"/>
  <path class="cls-1" d="m474.23,280.33c3.91.45,7.13,2.73,8.46,5.98.49,1.23.64,2.01.7,3.77.1,2.92-.4,4.91-1.73,6.78-.52.73-1.71,1.88-2.49,2.39-3.54,2.34-9.16,2.47-12.81.29-2.18-1.31-3.7-3.29-4.31-5.63-.21-.79-.26-1.29-.3-2.68-.07-2.42.19-3.84,1.03-5.53,1.36-2.7,4.33-4.8,7.48-5.27.41-.06.86-.13,1-.15.54-.07,2.1-.05,2.96.04Z"/>
  <path class="cls-1" d="m471.66,284.96c-.73.14-1.66.65-2.1,1.17-.84.95-1.21,2.08-1.29,4.01-.14,3.32.74,5.32,2.7,6.1.78.31,2.42.3,3.22-.02,1.24-.48,2.21-1.78,2.54-3.38.2-.95.2-3.35-.01-4.35-.31-1.57-1-2.6-2.09-3.14-.95-.47-1.93-.59-2.97-.39Z"/>
  <path class="cls-2" d="m473.68,285.29c1.44.33,2.26,1.23,2.72,2.95.16.62.2,1.09.2,2.38.01,2.31-.32,3.44-1.3,4.48-.65.7-1.34,1-2.39,1.08-2.92.18-4.37-1.65-4.37-5.51,0-2.07.34-3.35,1.17-4.3.87-1.02,2.43-1.45,3.97-1.09Z"/>
  <path class="cls-1" d="m421.84,280.34c-2.14.36-3.73,1.55-4.8,3.61l-.29.55-.03-1.99-.02-1.98h-6.93v20.4h6.93v-5.12c0-3.36.04-5.3.11-5.65.15-.72.64-1.62,1.13-2.05.91-.83,2.59-1.35,4.39-1.35h1v-6.53h-.47c-.27.02-.72.06-1.01.11Z"/>
  <path class="cls-1" d="m423.03,283.48v2.94l-1.13.06c-2.48.14-4.13.93-4.89,2.37-.57,1.09-.61,1.45-.61,6.86v4.9h-6.33v-19.8h6.33v1.79c0,1.35.03,1.84.14,1.98.2.28.42.13.75-.52,1.08-2.15,3.05-3.46,5.32-3.54h.42s0,2.94,0,2.94Z"/>
  <path class="cls-1" d="m498.51,280.34c-2.14.36-3.73,1.55-4.8,3.61l-.29.55-.03-1.99-.02-1.98h-6.93v20.4h6.93v-5.12c0-3.36.04-5.3.11-5.65.15-.72.64-1.62,1.13-2.05.91-.83,2.59-1.35,4.39-1.35h1v-6.53h-.47c-.27.02-.72.06-1.01.11Z"/>
  <path class="cls-1" d="m499.7,283.48v2.94l-1.13.06c-2.48.14-4.13.93-4.89,2.37-.57,1.09-.61,1.45-.61,6.86v4.9h-6.33v-19.8h6.33v1.79c0,1.35.03,1.84.14,1.98.2.28.42.13.75-.52,1.08-2.15,3.05-3.46,5.32-3.54h.42s0,2.94,0,2.94Z"/>
</svg>